<svg width="28" height="29" viewBox="0 0 28 29" fill="none" xmlns="http://www.w3.org/2000/svg">
<path fill-rule="evenodd" clip-rule="evenodd" d="M12.5447 2.82583C12.5488 3.30907 12.1604 3.70412 11.6772 3.70822C9.68264 3.72513 8.21269 3.78999 7.07393 4.01305C5.9596 4.23132 5.22711 4.58946 4.66169 5.15487C3.99687 5.8197 3.61538 6.71916 3.41481 8.21105C3.21084 9.7281 3.20898 11.7216 3.20898 14.4969C3.20898 17.2722 3.21084 19.2657 3.41481 20.7827C3.61538 22.2746 3.99687 23.1741 4.66169 23.8389C5.32652 24.5037 6.22598 24.8852 7.71786 25.0858C9.23492 25.2897 11.2284 25.2916 14.0037 25.2916C16.779 25.2916 18.7725 25.2897 20.2895 25.0858C21.7814 24.8852 22.6809 24.5037 23.3457 23.8389C23.9111 23.2735 24.2692 22.541 24.4875 21.4266C24.7106 20.2879 24.7754 18.8179 24.7924 16.8234C24.7964 16.3402 25.1915 15.9518 25.6747 15.9559C26.158 15.9599 26.5464 16.355 26.5423 16.8382C26.5254 18.8267 26.4628 20.4462 26.2049 21.763C25.9422 23.1043 25.4657 24.1937 24.5831 25.0763C23.539 26.1205 22.2087 26.5935 20.5227 26.8202C18.8756 27.0416 16.7645 27.0416 14.0706 27.0416H13.9368C11.2429 27.0416 9.13183 27.0416 7.48468 26.8202C5.79874 26.5935 4.46842 26.1205 3.42426 25.0763C2.38009 24.0321 1.90708 22.7018 1.68041 21.0159C1.45896 19.3687 1.45897 17.2577 1.45898 14.5638V14.4299C1.45897 11.7361 1.45896 9.62501 1.68041 7.97786C1.90708 6.29192 2.38009 4.9616 3.42426 3.91744C4.30685 3.03485 5.39623 2.55842 6.73753 2.29568C8.05441 2.03774 9.67385 1.97514 11.6623 1.95828C12.1456 1.95419 12.5406 2.3426 12.5447 2.82583ZM19.2153 2.21453C19.557 1.87283 20.111 1.87283 20.4527 2.21453L26.286 8.04787C26.6277 8.38958 26.6277 8.9436 26.286 9.2853L20.4527 15.1186C20.111 15.4603 19.557 15.4603 19.2153 15.1186C18.8736 14.7769 18.8736 14.2229 19.2153 13.8812L23.5549 9.54159H16.334C14.5239 9.54159 13.4556 10.4248 13.0814 10.8008L12.8572 11.0261L12.6349 11.2473C12.2588 11.6215 11.3757 12.6899 11.3757 14.4999V17.9999C11.3757 18.4832 10.9839 18.8749 10.5007 18.8749C10.0174 18.8749 9.62565 18.4832 9.62565 17.9999V14.4999C9.62565 12.0688 10.8238 10.5807 11.4004 10.0069C11.4004 10.0069 11.4004 10.0069 11.4004 10.0069L11.6227 9.78566L11.8409 9.56638C12.4147 8.98979 13.9029 7.79159 16.334 7.79159H23.5549L19.2153 3.45197C18.8736 3.11026 18.8736 2.55624 19.2153 2.21453Z" fill="currentColor"/>
</svg>
