<svg width="28" height="29" viewBox="0 0 28 29" fill="none" xmlns="http://www.w3.org/2000/svg">
<path fill-rule="evenodd" clip-rule="evenodd" d="M14.0007 1.95837C7.07408 1.95837 1.45898 7.57347 1.45898 14.5C1.45898 21.4266 7.07408 27.0417 14.0007 27.0417C20.9272 27.0417 26.5423 21.4266 26.5423 14.5C26.5423 7.57347 20.9272 1.95837 14.0007 1.95837ZM3.20898 14.5C3.20898 8.53997 8.04058 3.70837 14.0007 3.70837C16.6659 3.70837 19.1055 4.67457 20.9883 6.27581C20.9805 6.28304 20.9728 6.29043 20.9653 6.29799L5.79863 21.4644C5.79102 21.472 5.78358 21.4797 5.77631 21.4875C4.17514 19.6048 3.20898 17.1652 3.20898 14.5ZM7.0129 22.7242C8.89569 24.3255 11.3353 25.2917 14.0007 25.2917C19.9607 25.2917 24.7923 20.4601 24.7923 14.5C24.7923 11.8348 23.8261 9.3952 22.2249 7.51243C22.2177 7.5202 22.2103 7.52787 22.2027 7.53544L7.03605 22.7018C7.02844 22.7094 7.02072 22.7169 7.0129 22.7242Z" fill="currentColor"/>
</svg>
