<svg width="28" height="28" viewBox="0 0 28 28" fill="none" xmlns="http://www.w3.org/2000/svg">
<path d="M19.8359 16.3334C20.4803 16.3334 21.0026 15.8111 21.0026 15.1667C21.0026 14.5224 20.4803 14.0001 19.8359 14.0001C19.1916 14.0001 18.6693 14.5224 18.6693 15.1667C18.6693 15.8111 19.1916 16.3334 19.8359 16.3334Z" fill="currentColor"/>
<path d="M19.8359 21.0001C20.4803 21.0001 21.0026 20.4777 21.0026 19.8334C21.0026 19.1891 20.4803 18.6667 19.8359 18.6667C19.1916 18.6667 18.6693 19.1891 18.6693 19.8334C18.6693 20.4777 19.1916 21.0001 19.8359 21.0001Z" fill="currentColor"/>
<path d="M15.1693 15.1667C15.1693 15.8111 14.6469 16.3334 14.0026 16.3334C13.3583 16.3334 12.8359 15.8111 12.8359 15.1667C12.8359 14.5224 13.3583 14.0001 14.0026 14.0001C14.6469 14.0001 15.1693 14.5224 15.1693 15.1667Z" fill="currentColor"/>
<path d="M15.1693 19.8334C15.1693 20.4777 14.6469 21.0001 14.0026 21.0001C13.3583 21.0001 12.8359 20.4777 12.8359 19.8334C12.8359 19.1891 13.3583 18.6667 14.0026 18.6667C14.6469 18.6667 15.1693 19.1891 15.1693 19.8334Z" fill="currentColor"/>
<path d="M8.16927 16.3334C8.8136 16.3334 9.33594 15.8111 9.33594 15.1667C9.33594 14.5224 8.8136 14.0001 8.16927 14.0001C7.52494 14.0001 7.0026 14.5224 7.0026 15.1667C7.0026 15.8111 7.52494 16.3334 8.16927 16.3334Z" fill="currentColor"/>
<path d="M8.16927 21.0001C8.8136 21.0001 9.33594 20.4777 9.33594 19.8334C9.33594 19.1891 8.8136 18.6667 8.16927 18.6667C7.52494 18.6667 7.0026 19.1891 7.0026 19.8334C7.0026 20.4777 7.52494 21.0001 8.16927 21.0001Z" fill="currentColor"/>
<path fill-rule="evenodd" clip-rule="evenodd" d="M8.16927 2.04175C8.65252 2.04175 9.04427 2.4335 9.04427 2.91675V3.80659C9.8166 3.79173 10.6675 3.79174 11.6033 3.79175H16.4018C17.3376 3.79174 18.1886 3.79173 18.9609 3.80659V2.91675C18.9609 2.4335 19.3527 2.04175 19.8359 2.04175C20.3192 2.04175 20.7109 2.4335 20.7109 2.91675V3.88168C21.0142 3.9048 21.3014 3.93387 21.5731 3.9704C22.941 4.1543 24.0481 4.54177 24.9212 5.41486C25.7942 6.28796 26.1817 7.39506 26.3656 8.76289C26.5443 10.092 26.5443 11.7902 26.5443 13.9342V16.3992C26.5443 18.5433 26.5443 20.2415 26.3656 21.5706C26.1817 22.9384 25.7942 24.0455 24.9212 24.9186C24.0481 25.7917 22.941 26.1792 21.5731 26.3631C20.2441 26.5418 18.5458 26.5418 16.4018 26.5417H11.6035C9.45943 26.5418 7.76115 26.5418 6.43208 26.3631C5.06425 26.1792 3.95715 25.7917 3.08406 24.9186C2.21096 24.0455 1.82349 22.9384 1.6396 21.5706C1.46091 20.2415 1.46092 18.5433 1.46094 16.3992V13.9343C1.46092 11.7902 1.46091 10.092 1.6396 8.76289C1.82349 7.39506 2.21096 6.28796 3.08406 5.41486C3.95715 4.54177 5.06425 4.1543 6.43208 3.9704C6.70383 3.93387 6.991 3.9048 7.29427 3.88168V2.91675C7.29427 2.4335 7.68602 2.04175 8.16927 2.04175ZM6.66526 5.7048C5.49149 5.86261 4.81524 6.15856 4.32149 6.6523C3.82775 7.14605 3.5318 7.8223 3.37399 8.99607C3.34726 9.19485 3.32492 9.40413 3.30623 9.62508H24.699C24.6803 9.40413 24.6579 9.19486 24.6312 8.99607C24.4734 7.8223 24.1775 7.14605 23.6837 6.6523C23.19 6.15856 22.5137 5.86261 21.3399 5.7048C20.141 5.54361 18.5606 5.54175 16.3359 5.54175H11.6693C9.44465 5.54175 7.8642 5.54361 6.66526 5.7048ZM3.21094 14.0001C3.21094 13.0037 3.21131 12.1366 3.2262 11.3751H24.779C24.7939 12.1366 24.7943 13.0037 24.7943 14.0001V16.3334C24.7943 18.558 24.7924 20.1385 24.6312 21.3374C24.4734 22.5112 24.1775 23.1874 23.6837 23.6812C23.19 24.1749 22.5137 24.4709 21.3399 24.6287C20.141 24.7899 18.5606 24.7917 16.3359 24.7917H11.6693C9.44465 24.7917 7.8642 24.7899 6.66526 24.6287C5.49149 24.4709 4.81524 24.1749 4.32149 23.6812C3.82775 23.1874 3.5318 22.5112 3.37399 21.3374C3.2128 20.1385 3.21094 18.558 3.21094 16.3334V14.0001Z" fill="currentColor"/>
</svg>
