<svg width="28" height="28" viewBox="0 0 28 28" fill="none" xmlns="http://www.w3.org/2000/svg">
<path fill-rule="evenodd" clip-rule="evenodd" d="M14.0007 3.20825C8.04058 3.20825 3.20898 8.03985 3.20898 13.9999C3.20898 15.7278 3.61443 17.3585 4.33458 18.8044C4.62362 19.3847 4.73492 20.0786 4.55256 20.7601L3.85768 23.3572C3.73006 23.8341 4.16642 24.2705 4.64339 24.1429L7.24044 23.448C7.922 23.2656 8.61591 23.377 9.19621 23.666C10.6421 24.3861 12.2728 24.7916 14.0007 24.7916C19.9607 24.7916 24.7923 19.96 24.7923 13.9999C24.7923 8.03985 19.9607 3.20825 14.0007 3.20825ZM1.45898 13.9999C1.45898 7.07335 7.07408 1.45825 14.0007 1.45825C20.9272 1.45825 26.5423 7.07335 26.5423 13.9999C26.5423 20.9265 20.9272 26.5416 14.0007 26.5416C11.996 26.5416 10.0988 26.0706 8.41599 25.2324C8.16488 25.1074 7.90848 25.0808 7.69277 25.1385L5.09572 25.8334C3.31791 26.3091 1.69147 24.6826 2.16715 22.9048L2.86202 20.3078C2.91974 20.0921 2.89321 19.8357 2.76813 19.5846C1.92998 17.9018 1.45898 16.0046 1.45898 13.9999ZM8.45898 12.2499C8.45898 11.7667 8.85073 11.3749 9.33398 11.3749H18.6673C19.1506 11.3749 19.5423 11.7667 19.5423 12.2499C19.5423 12.7332 19.1506 13.1249 18.6673 13.1249H9.33398C8.85073 13.1249 8.45898 12.7332 8.45898 12.2499ZM8.45898 16.3333C8.45898 15.85 8.85073 15.4583 9.33398 15.4583H15.7507C16.2339 15.4583 16.6257 15.85 16.6257 16.3333C16.6257 16.8165 16.2339 17.2083 15.7507 17.2083H9.33398C8.85073 17.2083 8.45898 16.8165 8.45898 16.3333Z" fill="currentColor"/>
</svg>
