<svg width="28" height="28" viewBox="0 0 28 28" fill="none" xmlns="http://www.w3.org/2000/svg">
<path d="M20.2838 10.2021C20.6255 9.86043 20.6255 9.3064 20.2838 8.9647C19.9421 8.62299 19.3881 8.62299 19.0464 8.9647C18.7047 9.3064 11.3672 16.6438 11.3672 16.6438L9.65263 14.9292C9.31092 14.5875 8.7569 14.5875 8.41519 14.9292C8.07348 15.2709 8.07348 15.825 8.41519 16.1667L10.7485 18.5C11.0902 18.8417 11.6443 18.8417 11.986 18.5L20.2838 10.2021Z" fill="currentColor"/>
<path fill-rule="evenodd" clip-rule="evenodd" d="M14.0666 1.45825H13.9327C11.2396 1.45824 9.12906 1.45823 7.48233 1.67962C5.79681 1.90624 4.46678 2.37913 3.42283 3.42308C2.37889 4.46702 1.90599 5.79705 1.67938 7.48258C1.45798 9.12931 1.45799 11.2398 1.45801 13.933V14.0669C1.45799 16.76 1.45798 18.8705 1.67938 20.5173C1.90599 22.2028 2.37889 23.5328 3.42283 24.5768C4.46678 25.6207 5.79681 26.0936 7.48233 26.3202C9.12907 26.5416 11.2396 26.5416 13.9327 26.5416H14.0666C16.7597 26.5416 18.8703 26.5416 20.517 26.3202C22.2025 26.0936 23.5326 25.6207 24.5765 24.5768C25.6205 23.5328 26.0934 22.2028 26.32 20.5173C26.5414 18.8705 26.5414 16.76 26.5413 14.0669V13.933C26.5414 11.2399 26.5414 9.12931 26.32 7.48258C26.0934 5.79705 25.6205 4.46702 24.5765 3.42308C23.5326 2.37913 22.2025 1.90624 20.517 1.67962C18.8703 1.45823 16.7597 1.45824 14.0666 1.45825ZM4.66027 4.66052C5.32487 3.99592 6.22404 3.61454 7.71551 3.41402C9.23216 3.21011 11.2251 3.20825 13.9997 3.20825C16.7743 3.20825 18.7672 3.21011 20.2838 3.41402C21.7753 3.61454 22.6745 3.99592 23.3391 4.66052C24.0037 5.32511 24.3851 6.22429 24.5856 7.71576C24.7895 9.2324 24.7913 11.2253 24.7913 13.9999C24.7913 16.7745 24.7895 18.7674 24.5856 20.2841C24.3851 21.7756 24.0037 22.6747 23.3391 23.3393C22.6745 24.0039 21.7753 24.3853 20.2838 24.5858C18.7672 24.7897 16.7743 24.7916 13.9997 24.7916C11.2251 24.7916 9.23216 24.7897 7.71551 24.5858C6.22404 24.3853 5.32487 24.0039 4.66027 23.3393C3.99567 22.6747 3.6143 21.7756 3.41377 20.2841C3.20987 18.7674 3.20801 16.7745 3.20801 13.9999C3.20801 11.2253 3.20987 9.2324 3.41377 7.71576C3.6143 6.22429 3.99567 5.32511 4.66027 4.66052Z" fill="currentColor"/>
</svg>
