<svg width="28" height="28" viewBox="0 0 28 28" fill="none" xmlns="http://www.w3.org/2000/svg">
<path fill-rule="evenodd" clip-rule="evenodd" d="M13.7756 1.16675H13.6417C10.9486 1.16673 8.83805 1.16672 7.19132 1.38812C5.50579 1.61473 4.17576 2.08763 3.13182 3.13157C2.08787 4.17552 1.61498 5.50555 1.38836 7.19107C1.16697 8.8378 1.16698 10.9483 1.16699 13.6415V13.7754C1.16698 16.4685 1.16697 18.579 1.38836 20.2258C1.61498 21.9113 2.08787 23.2413 3.13182 24.2853C4.17576 25.3292 5.50579 25.8021 7.19132 26.0287C8.83805 26.2501 10.9486 26.2501 13.6417 26.2501H13.7756C16.4687 26.2501 18.5793 26.2501 20.226 26.0287C21.9115 25.8021 23.2416 25.3292 24.2855 24.2853C25.3294 23.2413 25.8023 21.9113 26.029 20.2258C26.2504 18.579 26.2503 16.4685 26.2503 13.7753V13.6415C26.2503 10.9484 26.2504 8.83781 26.029 7.19107C25.8023 5.50555 25.3294 4.17552 24.2855 3.13157C23.2416 2.08763 21.9115 1.61473 20.226 1.38812C18.5793 1.16672 16.4687 1.16673 13.7756 1.16675ZM4.36926 4.36901C5.03385 3.70441 5.93303 3.32304 7.4245 3.12251C8.94114 2.91861 10.9341 2.91675 13.7087 2.91675C16.4833 2.91675 18.4762 2.91861 19.9928 3.12251C21.4843 3.32304 22.3835 3.70441 23.0481 4.36901C23.7127 5.03361 24.094 5.93278 24.2946 7.42425C24.4985 8.9409 24.5003 10.9338 24.5003 13.7084C24.5003 16.483 24.4985 18.4759 24.2946 19.9926C24.094 21.484 23.7127 22.3832 23.0481 23.0478C22.3835 23.7124 21.4843 24.0938 19.9928 24.2943C18.4762 24.4982 16.4833 24.5001 13.7087 24.5001C10.9341 24.5001 8.94114 24.4982 7.4245 24.2943C5.93303 24.0938 5.03385 23.7124 4.36926 23.0478C3.70466 22.3832 3.32328 21.484 3.12276 19.9926C2.91885 18.4759 2.91699 16.483 2.91699 13.7084C2.91699 10.9338 2.91885 8.9409 3.12276 7.42425C3.32328 5.93278 3.70466 5.03361 4.36926 4.36901Z" fill="currentColor"/>
</svg>
