<svg width="33" height="32" viewBox="0 0 33 32" fill="none" xmlns="http://www.w3.org/2000/svg">
<path d="M26.75 16C26.75 15.7348 26.8554 15.4804 27.0429 15.2929C27.2304 15.1054 27.4848 15 27.75 15C28.0152 15 28.2696 15.1054 28.4571 15.2929C28.6446 15.4804 28.75 15.7348 28.75 16V27C28.75 27.2652 28.6446 27.5196 28.4571 27.7071C28.2696 27.8946 28.0152 28 27.75 28H5.75C5.48478 28 5.23043 27.8946 5.04289 27.7071C4.85536 27.5196 4.75 27.2652 4.75 27V5C4.75 4.73478 4.85536 4.48043 5.04289 4.29289C5.23043 4.10536 5.48478 4 5.75 4H16.75C17.0152 4 17.2696 4.10536 17.4571 4.29289C17.6446 4.48043 17.75 4.73478 17.75 5C17.75 5.26522 17.6446 5.51957 17.4571 5.70711C17.2696 5.89464 17.0152 6 16.75 6H6.75V26H26.75V16Z" fill="currentColor"/>
<path d="M15.436 17.32L17.086 17.084L27.222 6.95001C27.3175 6.85776 27.3937 6.74742 27.4461 6.62542C27.4985 6.50341 27.5261 6.37219 27.5272 6.23941C27.5284 6.10663 27.5031 5.97495 27.4528 5.85206C27.4025 5.72916 27.3283 5.61751 27.2344 5.52362C27.1405 5.42972 27.0288 5.35547 26.9059 5.30519C26.783 5.25491 26.6513 5.22961 26.5186 5.23076C26.3858 5.23192 26.2546 5.2595 26.1326 5.31191C26.0106 5.36432 25.9002 5.4405 25.808 5.53601L15.67 15.67L15.434 17.32H15.436ZM28.636 4.12001C28.9147 4.39861 29.1359 4.72942 29.2868 5.09352C29.4377 5.45762 29.5153 5.84788 29.5153 6.24201C29.5153 6.63614 29.4377 7.0264 29.2868 7.39051C29.1359 7.75461 28.9147 8.08541 28.636 8.36401L18.266 18.734C18.113 18.8875 17.9144 18.9872 17.7 19.018L14.4 19.49C14.2462 19.5121 14.0894 19.498 13.9419 19.449C13.7945 19.3999 13.6606 19.3171 13.5507 19.2073C13.4408 19.0974 13.3581 18.9635 13.309 18.816C13.2599 18.6686 13.2459 18.5118 13.268 18.358L13.74 15.058C13.7703 14.8438 13.8692 14.6452 14.022 14.492L24.394 4.12201C24.9566 3.5596 25.7195 3.24365 26.515 3.24365C27.3105 3.24365 28.0734 3.5596 28.636 4.12201V4.12001Z" fill="currentColor"/>
</svg>
