<svg width="28" height="29" viewBox="0 0 28 29" fill="none" xmlns="http://www.w3.org/2000/svg">
<path fill-rule="evenodd" clip-rule="evenodd" d="M4.46133 14.6435C6.097 19.7325 12.5592 23.8474 14.2765 24.8659C15.9997 23.8369 22.5085 19.6765 24.0917 14.6482C25.1312 11.3979 24.1663 7.2807 20.3327 6.0452C18.4753 5.44904 16.3088 5.81187 14.8132 6.9692C14.5005 7.20954 14.0665 7.2142 13.7515 6.9762C12.1672 5.78504 10.0975 5.4362 8.211 6.0452C4.38317 7.27954 3.42183 11.3967 4.46133 14.6435ZM14.2783 26.7513C14.1336 26.7513 13.9901 26.7163 13.8594 26.6451C13.4943 26.4456 4.89243 21.7043 2.79593 15.178C2.79477 15.178 2.79477 15.1768 2.79477 15.1768C1.47877 11.0678 2.9441 5.90414 7.67493 4.3793C9.89627 3.66064 12.3171 3.9768 14.2748 5.2123C16.1718 4.01297 18.6918 3.68164 20.8688 4.3793C25.6043 5.90647 27.0743 11.069 25.7594 15.1768C23.7306 21.6285 15.0658 26.441 14.6983 26.6428C14.5676 26.7151 14.4229 26.7513 14.2783 26.7513Z" fill="currentColor"/>
</svg>
