<svg width="17" height="16" viewBox="0 0 17 16" fill="none" xmlns="http://www.w3.org/2000/svg">
<path d="M15.5146 1.60262C14.8791 0.967187 14.0342 0.617188 13.1355 0.617188C12.2369 0.617188 11.3919 0.967156 10.7565 1.60262L3.46837 8.89073C2.99775 9.36133 2.73859 9.98708 2.73859 10.6526C2.73859 11.3181 2.99775 11.9439 3.46837 12.4145C4.43987 13.386 6.02065 13.386 6.99211 12.4145L13.3823 6.02436L12.6443 5.28643L6.25415 11.6766C5.68955 12.2412 4.77087 12.2411 4.20624 11.6766C3.93274 11.4031 3.78212 11.0394 3.78212 10.6526C3.78212 10.2658 3.93274 9.90217 4.20624 9.62867L11.4944 2.34059C11.9327 1.90225 12.5156 1.66081 13.1355 1.66081C13.7554 1.66081 14.3382 1.90222 14.7766 2.34059C15.215 2.77893 15.4564 3.36174 15.4564 3.98168C15.4564 4.60162 15.215 5.1844 14.7766 5.62277L6.99358 13.4058C5.74836 14.651 3.72221 14.6509 2.47703 13.4058C1.87381 12.8026 1.54162 12.0006 1.54162 11.1475C1.54162 10.2944 1.87384 9.49245 2.47703 8.88923L9.36201 2.00425L8.62408 1.26631L1.73909 8.1513C0.0869696 9.80339 0.0869696 12.4916 1.73909 14.1437C2.56515 14.9698 3.65024 15.3828 4.7353 15.3828C5.82036 15.3828 6.90549 14.9698 7.73152 14.1437L15.5145 6.36068C16.15 5.72524 16.5 4.88034 16.5 3.98165C16.5 3.08296 16.15 2.23806 15.5146 1.60262Z" fill="currentColor"/>
</svg>
