<svg width="28" height="29" viewBox="0 0 28 29" fill="none" xmlns="http://www.w3.org/2000/svg">
<path fill-rule="evenodd" clip-rule="evenodd" d="M12.2047 1.95837H15.7966C17.6672 1.95837 19.1336 1.95836 20.3052 2.06975C21.4993 2.18329 22.4771 2.4187 23.3391 2.94691C24.2417 3.50005 25.0006 4.25897 25.5538 5.16161C26.082 6.02357 26.3174 7.00136 26.4309 8.1955C26.5423 9.36705 26.5423 10.8335 26.5423 12.7041V13.9492C26.5423 15.2807 26.5423 16.3247 26.4848 17.168C26.4262 18.0261 26.3052 18.7402 26.0317 19.4005C25.3508 21.0443 24.0449 22.3502 22.4012 23.0311C21.462 23.4201 20.3923 23.5064 18.9278 23.5316C18.4156 23.5404 18.0911 23.5469 17.8437 23.5743C17.6126 23.5999 17.523 23.6374 17.4706 23.6679C17.4153 23.7001 17.3399 23.7587 17.2091 23.9382C17.0675 24.1325 16.9075 24.4009 16.6538 24.8295L16.0214 25.898C15.1189 27.4228 12.8824 27.4228 11.9799 25.898L11.3474 24.8295C11.0937 24.4009 10.9337 24.1325 10.7921 23.9382C10.6613 23.7587 10.586 23.7001 10.5307 23.6679C10.4782 23.6374 10.3886 23.5999 10.1575 23.5743C9.91017 23.5469 9.5857 23.5404 9.07342 23.5316C7.60892 23.5064 6.53929 23.4201 5.60015 23.0311C3.95642 22.3502 2.65048 21.0443 1.96963 19.4005C1.69608 18.7402 1.57506 18.0261 1.51652 17.168C1.45898 16.3247 1.45898 15.2807 1.45898 13.9492L1.45898 12.7041C1.45898 10.8335 1.45897 9.36705 1.57036 8.1955C1.6839 7.00136 1.91931 6.02357 2.44752 5.16161C3.00066 4.25897 3.75958 3.50005 4.66222 2.94691C5.52418 2.4187 6.50197 2.18329 7.69611 2.06975C8.86766 1.95836 10.3341 1.95837 12.2047 1.95837ZM7.86175 3.8119C6.79571 3.91326 6.11738 4.10764 5.5766 4.43903C4.90942 4.84788 4.34849 5.40881 3.93964 6.07599C3.60825 6.61677 3.41387 7.2951 3.31251 8.36114C3.20991 9.44021 3.20898 10.8236 3.20898 12.75V13.9167C3.20898 15.2877 3.20946 16.2721 3.26246 17.0489C3.31492 17.8178 3.41592 18.3192 3.58642 18.7308C4.08966 19.9458 5.05491 20.911 6.26985 21.4143C6.87142 21.6635 7.63889 21.7566 9.10357 21.7819L9.14069 21.7825C9.60502 21.7905 10.0119 21.7975 10.3501 21.8349C10.7135 21.8752 11.0689 21.9565 11.4105 22.1551C11.7492 22.3521 11.9934 22.6153 12.2064 22.9074C12.4032 23.1774 12.6054 23.5191 12.8344 23.9061L13.4858 25.0067C13.7107 25.3866 14.2905 25.3866 14.5154 25.0067L15.1668 23.9061C15.3959 23.5191 15.5981 23.1774 15.7949 22.9074C16.0078 22.6153 16.2521 22.3521 16.5908 22.1551C16.9323 21.9565 17.2877 21.8752 17.6511 21.8349C17.9893 21.7975 18.3962 21.7905 18.8606 21.7825L18.8977 21.7819C20.3624 21.7566 21.1299 21.6635 21.7315 21.4143C22.9464 20.911 23.9116 19.9458 24.4149 18.7308C24.5854 18.3192 24.6864 17.8178 24.7388 17.0489C24.7918 16.2721 24.7923 15.2877 24.7923 13.9167V12.75C24.7923 10.8236 24.7914 9.44021 24.6888 8.36114C24.5874 7.2951 24.393 6.61677 24.0617 6.07599C23.6528 5.40881 23.0919 4.84788 22.4247 4.43903C21.8839 4.10764 21.2056 3.91326 20.1395 3.8119C19.0605 3.7093 17.6771 3.70837 15.7507 3.70837H12.2507C10.3242 3.70837 8.94082 3.7093 7.86175 3.8119ZM17.818 7.99993C19.2588 8.53868 20.1257 10.0029 20.1257 11.8339C20.1257 13.1884 19.3103 14.4503 18.4536 15.4288C17.5696 16.4383 16.4951 17.3099 15.698 17.8974C15.667 17.9202 15.6358 17.9434 15.6042 17.9669C15.1706 18.2892 14.6801 18.6537 14.0007 18.6537C13.3212 18.6537 12.8307 18.2892 12.3971 17.9669C12.3655 17.9434 12.3343 17.9202 12.3033 17.8973C11.5062 17.3099 10.4317 16.4383 9.54776 15.4288C8.69099 14.4503 7.87565 13.1884 7.87565 11.8339C7.87565 10.0029 8.74248 8.53869 10.1833 7.99994C11.4 7.54498 12.7844 7.8404 14.0006 8.78564C15.2169 7.8404 16.6013 7.54498 17.818 7.99993ZM17.2051 9.63909C16.6017 9.41347 15.6397 9.5339 14.6259 10.5694C14.4613 10.7375 14.2359 10.8322 14.0007 10.8322C13.7654 10.8322 13.54 10.7375 13.3754 10.5694C12.3616 9.5339 11.3996 9.41348 10.7962 9.63909C10.2026 9.86105 9.62565 10.5416 9.62565 11.8339C9.62565 12.5241 10.0722 13.3713 10.8644 14.276C11.6293 15.1497 12.5907 15.9352 13.3415 16.4886C13.625 16.6975 13.7683 16.8007 13.8829 16.8628C13.9592 16.9041 13.981 16.9039 13.9978 16.9038C13.9988 16.9037 13.9997 16.9037 14.0007 16.9037C14.0016 16.9037 14.0025 16.9037 14.0035 16.9038C14.0203 16.9039 14.0421 16.9041 14.1184 16.8628C14.2331 16.8007 14.3763 16.6975 14.6598 16.4886C15.4106 15.9352 16.372 15.1497 17.1369 14.276C17.9291 13.3713 18.3757 12.5241 18.3757 11.8339C18.3757 10.5416 17.7987 9.86105 17.2051 9.63909Z" fill="currentColor"/>
</svg>
