<svg width="28" height="28" viewBox="0 0 28 28" fill="none" xmlns="http://www.w3.org/2000/svg">
<path fill-rule="evenodd" clip-rule="evenodd" d="M11.7594 21.6917H4.4082C3.9252 21.6917 3.5332 21.2997 3.5332 20.8167C3.5332 20.3337 3.9252 19.9417 4.4082 19.9417H11.7594C12.2424 19.9417 12.6344 20.3337 12.6344 20.8167C12.6344 21.2997 12.2424 21.6917 11.7594 21.6917Z" fill="currentColor"/>
<path fill-rule="evenodd" clip-rule="evenodd" d="M22.3891 10.3838H15.0391C14.5561 10.3838 14.1641 9.99179 14.1641 9.50879C14.1641 9.02579 14.5561 8.63379 15.0391 8.63379H22.3891C22.8721 8.63379 23.2641 9.02579 23.2641 9.50879C23.2641 9.99179 22.8721 10.3838 22.3891 10.3838Z" fill="currentColor"/>
<path fill-rule="evenodd" clip-rule="evenodd" d="M7.13183 7.58325C6.09467 7.58325 5.25 8.41859 5.25 9.44642C5.25 10.4731 6.09467 11.3073 7.13183 11.3073C8.17017 11.3073 9.01367 10.4731 9.01367 9.44642C9.01367 8.41859 8.17017 7.58325 7.13183 7.58325ZM7.13183 13.0573C5.12983 13.0573 3.5 11.4379 3.5 9.44642C3.5 7.45492 5.12983 5.83325 7.13183 5.83325C9.135 5.83325 10.7637 7.45492 10.7637 9.44642C10.7637 11.4379 9.135 13.0573 7.13183 13.0573Z" fill="currentColor"/>
<path fill-rule="evenodd" clip-rule="evenodd" d="M20.2853 18.9092C19.247 18.9092 18.4023 19.7445 18.4023 20.7712C18.4023 21.799 19.247 22.6332 20.2853 22.6332C21.3225 22.6332 22.166 21.799 22.166 20.7712C22.166 19.7445 21.3225 18.9092 20.2853 18.9092ZM20.2853 24.3832C18.2822 24.3832 16.6523 22.7627 16.6523 20.7712C16.6523 18.7797 18.2822 17.1592 20.2853 17.1592C22.2873 17.1592 23.916 18.7797 23.916 20.7712C23.916 22.7627 22.2873 24.3832 20.2853 24.3832Z" fill="currentColor"/>
</svg>
