<svg width="28" height="29" viewBox="0 0 28 29" fill="none" xmlns="http://www.w3.org/2000/svg">
<path d="M17.4369 1.95825C15.8414 1.95823 14.5553 1.95821 13.5439 2.0942C12.4937 2.23538 11.6095 2.53743 10.9073 3.23966C10.2949 3.85208 9.98545 4.60467 9.82301 5.489C9.66516 6.34832 9.63497 7.39993 9.62794 8.66172C9.62525 9.14496 10.0148 9.53888 10.4981 9.54157C10.9813 9.54426 11.3752 9.1547 11.3779 8.67146C11.385 7.39571 11.4181 6.49145 11.5442 5.80516C11.6657 5.14388 11.8607 4.76113 12.1447 4.4771C12.4676 4.15421 12.921 3.94369 13.777 3.82859C14.6583 3.71011 15.8263 3.70825 17.5009 3.70825H18.6676C20.3422 3.70825 21.5102 3.71011 22.3914 3.82859C23.2475 3.94369 23.7008 4.15421 24.0237 4.4771C24.3466 4.79999 24.5571 5.25332 24.6722 6.10939C24.7907 6.99064 24.7926 8.1586 24.7926 9.83325V19.1666C24.7926 20.8412 24.7907 22.0092 24.6722 22.8904C24.5571 23.7465 24.3466 24.1999 24.0237 24.5227C23.7008 24.8456 23.2475 25.0562 22.3914 25.1712C21.5102 25.2897 20.3422 25.2916 18.6676 25.2916H17.5009C15.8263 25.2916 14.6583 25.2897 13.777 25.1712C12.921 25.0562 12.4676 24.8456 12.1447 24.5227C11.8607 24.2387 11.6657 23.856 11.5442 23.1947C11.4181 22.5084 11.385 21.6041 11.3779 20.3284C11.3752 19.8451 10.9813 19.4556 10.4981 19.4583C10.0148 19.461 9.62525 19.8549 9.62794 20.3381C9.63497 21.5999 9.66516 22.6515 9.82301 23.5108C9.98545 24.3952 10.2949 25.1478 10.9073 25.7602C11.6095 26.4624 12.4937 26.7645 13.5439 26.9056C14.5553 27.0416 15.8414 27.0416 17.4369 27.0416H18.7316C20.3271 27.0416 21.6131 27.0416 22.6246 26.9056C23.6747 26.7645 24.5589 26.4624 25.2612 25.7602C25.9634 25.0579 26.2654 24.1738 26.4066 23.1236C26.5426 22.1122 26.5426 20.8261 26.5426 19.2306V9.76924C26.5426 8.17372 26.5426 6.88767 26.4066 5.87621C26.2654 4.82608 25.9634 3.9419 25.2612 3.23966C24.5589 2.53743 23.6747 2.23538 22.6246 2.0942C21.6132 1.95821 20.3271 1.95823 18.7316 1.95825H17.4369Z" fill="currentColor"/>
<path d="M17.5007 13.6249C17.9839 13.6249 18.3757 14.0167 18.3757 14.4999C18.3757 14.9832 17.9839 15.3749 17.5007 15.3749H4.69933L6.98676 17.3356C7.35367 17.6501 7.39616 18.2025 7.08167 18.5694C6.76717 18.9363 6.21479 18.9788 5.84788 18.6643L1.76454 15.1643C1.5706 14.998 1.45898 14.7554 1.45898 14.4999C1.45898 14.2445 1.5706 14.0018 1.76454 13.8356L5.84788 10.3356C6.21478 10.0211 6.76717 10.0636 7.08167 10.4305C7.39616 10.7974 7.35367 11.3498 6.98676 11.6643L4.69933 13.6249H17.5007Z" fill="currentColor"/>
</svg>
