<svg width="25" height="25" viewBox="0 0 25 25" fill="none" xmlns="http://www.w3.org/2000/svg">
<path d="M2.5 16.5C2.5 13.672 2.5 12.257 3.379 11.379C4.257 10.5 5.672 10.5 8.5 10.5H16.5C19.328 10.5 20.743 10.5 21.621 11.379C22.5 12.257 22.5 13.672 22.5 16.5C22.5 19.328 22.5 20.743 21.621 21.621C20.743 22.5 19.328 22.5 16.5 22.5H8.5C5.672 22.5 4.257 22.5 3.379 21.621C2.5 20.743 2.5 19.328 2.5 16.5Z" stroke="currentColor" stroke-width="1.5"/>
<path d="M6.5 10.5V8.5C6.5 6.9087 7.13214 5.38258 8.25736 4.25736C9.38258 3.13214 10.9087 2.5 12.5 2.5C14.0913 2.5 15.6174 3.13214 16.7426 4.25736C17.8679 5.38258 18.5 6.9087 18.5 8.5V10.5" stroke="currentColor" stroke-width="1.5" stroke-linecap="round"/>
</svg>
