<svg width="28" height="29" viewBox="0 0 28 29" fill="none" xmlns="http://www.w3.org/2000/svg">
<path fill-rule="evenodd" clip-rule="evenodd" d="M11.6015 4.29175H16.3998C18.5439 4.29173 20.2421 4.29172 21.5712 4.47041C22.939 4.65431 24.0461 5.04178 24.9192 5.91487C25.7923 6.78796 26.1798 7.89506 26.3637 9.26289C26.5424 10.592 26.5423 12.2902 26.5423 14.4343V14.5659C26.5423 16.71 26.5424 18.4082 26.3637 19.7373C26.1798 21.1051 25.7923 22.2122 24.9192 23.0853C24.0461 23.9584 22.939 24.3459 21.5712 24.5298C20.2421 24.7085 18.5439 24.7084 16.3998 24.7084H11.6015C9.45745 24.7084 7.75921 24.7085 6.43012 24.5298C5.0623 24.3459 3.95519 23.9584 3.0821 23.0853C2.20901 22.2122 1.82154 21.1051 1.63764 19.7373C1.45895 18.4082 1.45897 16.71 1.45898 14.5659V14.4343C1.45897 12.2902 1.45895 10.592 1.63764 9.26289C1.82154 7.89506 2.20901 6.78796 3.0821 5.91487C3.95519 5.04178 5.0623 4.65431 6.43012 4.47041C7.75921 4.29172 9.45745 4.29173 11.6015 4.29175ZM6.66331 6.2048C5.48954 6.36261 4.81328 6.65856 4.31954 7.1523C3.82579 7.64605 3.52985 8.3223 3.37204 9.49607C3.21084 10.695 3.20899 12.2755 3.20899 14.5001C3.20899 16.7247 3.21084 18.3052 3.37204 19.5041C3.52985 20.6779 3.82579 21.3541 4.31954 21.8479C4.81328 22.3416 5.48954 22.6376 6.66331 22.7954C7.86225 22.9566 9.44269 22.9584 11.6673 22.9584H16.334C18.5586 22.9584 20.1391 22.9566 21.338 22.7954C22.5118 22.6376 23.188 22.3416 23.6818 21.8479C24.1755 21.3541 24.4715 20.6779 24.6293 19.5041C24.7905 18.3052 24.7923 16.7247 24.7923 14.5001C24.7923 12.2755 24.7905 10.695 24.6293 9.49607C24.4715 8.3223 24.1755 7.64605 23.6818 7.1523C23.188 6.65856 22.5118 6.36261 21.338 6.2048C20.1391 6.04361 18.5586 6.04175 16.334 6.04175H11.6673C9.44269 6.04175 7.86225 6.04361 6.66331 6.2048ZM6.32846 9.27325C6.63783 8.90201 7.18957 8.85185 7.56081 9.16122L10.0795 11.2601C11.168 12.1672 11.9237 12.7949 12.5617 13.2052C13.1793 13.6024 13.5981 13.7358 14.0007 13.7358C14.4032 13.7358 14.8221 13.6024 15.4396 13.2052C16.0776 12.7949 16.8333 12.1672 17.9218 11.2601L20.4405 9.16122C20.8117 8.85185 21.3635 8.90201 21.6728 9.27325C21.9822 9.6445 21.9321 10.1962 21.5608 10.5056L18.9982 12.6411C17.9642 13.5029 17.126 14.2013 16.3863 14.6771C15.6157 15.1727 14.8652 15.4858 14.0007 15.4858C13.1361 15.4858 12.3856 15.1727 11.615 14.6771C10.8753 14.2013 10.0372 13.5029 9.00307 12.6411L6.44049 10.5056C6.06925 10.1962 6.01909 9.6445 6.32846 9.27325Z" fill="currentColor"/>
</svg>
