<svg width="24" height="29" viewBox="0 0 24 29" fill="none" xmlns="http://www.w3.org/2000/svg">
<path fill-rule="evenodd" clip-rule="evenodd" d="M24 12.006C24 5.3795 18.6377 0 12 0C5.37681 0 0 5.3795 0 12.006C0 15.3265 1.34783 18.328 3.52174 20.4885C3.69565 20.6625 3.94203 20.7785 4.2029 20.7785C4.73913 20.7785 5.17391 20.3435 5.17391 19.807C5.17391 19.5315 5.07246 19.285 4.88406 19.0965C3.07246 17.284 1.95652 14.761 1.95652 12.006C1.95652 6.467 6.44927 1.943 11.9855 1.943C17.5217 1.943 22.0435 6.4525 22.0435 12.006C22.0435 14.79 20.9275 17.2985 19.1014 19.1255L10.6232 27.608L12 29L20.5072 20.4885C22.6667 18.328 24 15.3265 24 12.006Z" fill="currentColor"/>
<path fill-rule="evenodd" clip-rule="evenodd" d="M17.5654 14.326L14.5654 6.75696L12.0436 11.1795L9.50742 6.75696L6.52191 14.326H5.65234V15.457H10.1596V14.326H9.49292L10.1451 12.441L12.0436 15.544L13.9422 12.441L14.5944 14.326H13.9132V15.457H18.4494V14.326H17.5654Z" fill="currentColor"/>
</svg>
