<svg width="28" height="29" viewBox="0 0 28 29" fill="none" xmlns="http://www.w3.org/2000/svg">
<path fill-rule="evenodd" clip-rule="evenodd" d="M3.70277 6.53358C2.33594 7.90042 2.33594 10.1003 2.33594 14.5001C2.33594 18.8999 2.33594 21.0997 3.70277 22.4666C5.06961 23.8334 7.2695 23.8334 11.6693 23.8334H16.3359C20.7357 23.8334 22.9356 23.8334 24.3024 22.4666C25.6693 21.0997 25.6693 18.8999 25.6693 14.5001C25.6693 10.1003 25.6693 7.90042 24.3024 6.53358C22.9356 5.16675 20.7357 5.16675 16.3359 5.16675H11.6693C7.2695 5.16675 5.06961 5.16675 3.70277 6.53358ZM21.6748 9.27325C21.9842 9.6445 21.934 10.1962 21.5628 10.5056L19.0002 12.6411C17.9661 13.5028 17.128 14.2013 16.3882 14.6771C15.6177 15.1727 14.8672 15.4858 14.0026 15.4858C13.138 15.4858 12.3876 15.1727 11.617 14.6771C10.8772 14.2013 10.0391 13.5029 9.00502 12.6411L6.44244 10.5056C6.0712 10.1962 6.02104 9.6445 6.33041 9.27325C6.63978 8.90201 7.19152 8.85185 7.56277 9.16122L10.0815 11.2601C11.1699 12.1672 11.9256 12.7949 12.5636 13.2052C13.1812 13.6024 13.6 13.7358 14.0026 13.7358C14.4052 13.7358 14.824 13.6024 15.4416 13.2052C16.0796 12.7949 16.8353 12.1672 17.9237 11.2601L20.4424 9.16122C20.8137 8.85185 21.3654 8.90201 21.6748 9.27325Z" fill="currentColor"/>
</svg>
