<svg width="28" height="28" viewBox="0 0 28 28" fill="none" xmlns="http://www.w3.org/2000/svg">
<path fill-rule="evenodd" clip-rule="evenodd" d="M14.0002 1.45837C9.00663 1.45837 4.95854 5.50647 4.95854 10.5V11.3215C4.95854 12.1346 4.71787 12.9295 4.26686 13.606L2.92682 15.616C1.37154 17.9489 2.55887 21.12 5.26389 21.8577C6.14544 22.0981 7.03443 22.3015 7.92857 22.4678L7.93079 22.4738C8.82795 24.8676 11.2258 26.5417 14.0001 26.5417C16.7745 26.5417 19.1723 24.8676 20.0695 22.4738L20.0717 22.4678C20.9659 22.3015 21.8549 22.0981 22.7365 21.8577C25.4416 21.12 26.6289 17.9489 25.0736 15.616L23.7336 13.606C23.2825 12.9295 23.0419 12.1346 23.0419 11.3215V10.5C23.0419 5.50647 18.9938 1.45837 14.0002 1.45837ZM17.9394 22.7932C15.3226 23.1058 12.6777 23.1058 10.0609 22.7931C10.8903 23.9849 12.333 24.7917 14.0001 24.7917C15.6672 24.7917 17.1099 23.9849 17.9394 22.7932ZM6.70854 10.5C6.70854 6.47296 9.97313 3.20837 14.0002 3.20837C18.0273 3.20837 21.2919 6.47296 21.2919 10.5V11.3215C21.2919 12.4801 21.6348 13.6127 22.2775 14.5767L23.6175 16.5868C24.5102 17.9258 23.8287 19.7459 22.2761 20.1694C16.8578 21.6471 11.1426 21.6471 5.72435 20.1694C4.17171 19.7459 3.49021 17.9258 4.38291 16.5868L5.72295 14.5767C6.36561 13.6127 6.70854 12.4801 6.70854 11.3215V10.5Z" fill="currentColor"/>
</svg>
