<svg width="28" height="28" viewBox="0 0 28 28" fill="none" xmlns="http://www.w3.org/2000/svg">
<path d="M11.5248 4.95818C11.8856 3.93745 12.8591 3.20825 14.0007 3.20825C15.1423 3.20825 16.1158 3.93745 16.4765 4.95818C16.6376 5.4138 17.1375 5.65261 17.5931 5.49157C18.0487 5.33053 18.2876 4.83062 18.1265 4.37499C17.5263 2.67694 15.907 1.45825 14.0007 1.45825C12.0944 1.45825 10.475 2.67694 9.87486 4.37499C9.71382 4.83062 9.95263 5.33053 10.4083 5.49157C10.8639 5.65261 11.3638 5.4138 11.5248 4.95818Z" fill="currentColor"/>
<path d="M3.20898 6.99992C3.20898 6.51667 3.60074 6.12492 4.08398 6.12492H23.9174C24.4007 6.12492 24.7924 6.51667 24.7924 6.99992C24.7924 7.48317 24.4007 7.87492 23.9174 7.87492H4.08398C3.60074 7.87492 3.20898 7.48317 3.20898 6.99992Z" fill="currentColor"/>
<path d="M5.97032 9.04352C6.4525 9.01137 6.86944 9.3762 6.90158 9.85838L7.43818 17.9073C7.54301 19.4798 7.61771 20.574 7.78171 21.3972C7.94078 22.1957 8.16284 22.6184 8.48182 22.9168C8.8008 23.2152 9.23732 23.4087 10.0447 23.5143C10.877 23.6232 11.9736 23.6249 13.5496 23.6249H14.4519C16.0279 23.6249 17.1245 23.6232 17.9568 23.5143C18.7642 23.4087 19.2007 23.2152 19.5197 22.9168C19.8386 22.6184 20.0607 22.1957 20.2198 21.3972C20.3838 20.574 20.4585 19.4798 20.5633 17.9073L21.0999 9.85838C21.132 9.3762 21.549 9.01137 22.0312 9.04352C22.5133 9.07567 22.8782 9.49261 22.846 9.97479L22.3053 18.0852C22.2056 19.5817 22.125 20.7905 21.9361 21.7391C21.7396 22.7253 21.4054 23.549 20.7152 24.1947C20.025 24.8405 19.1809 25.1191 18.1838 25.2495C17.2248 25.375 16.0132 25.3749 14.5134 25.3749H13.4881C11.9882 25.3749 10.7767 25.375 9.81767 25.2495C8.82058 25.1191 7.97644 24.8405 7.28625 24.1947C6.59605 23.549 6.2619 22.7253 6.06543 21.7391C5.87646 20.7905 5.79589 19.5817 5.69615 18.0851L5.15546 9.97479C5.12331 9.49261 5.48814 9.07567 5.97032 9.04352Z" fill="currentColor"/>
</svg>
