<svg width="28" height="28" viewBox="0 0 28 28" fill="none" xmlns="http://www.w3.org/2000/svg">
<path d="M19.6465 6.76245C20.0895 6.76245 20.4556 7.09163 20.5135 7.51872L20.5215 7.63745V23.5249C20.5215 24.0081 20.1297 24.3999 19.6465 24.3999C19.2035 24.3999 18.8374 24.0707 18.7795 23.6436L18.7715 23.5249V7.63745C18.7715 7.1542 19.1632 6.76245 19.6465 6.76245Z" fill="currentColor"/>
<path d="M23.7833 18.1288C24.1243 17.7863 24.6783 17.785 25.0208 18.1259C25.3321 18.4359 25.3615 18.9219 25.1081 19.265L25.0236 19.3634L20.2662 24.1428C19.9553 24.4552 19.4673 24.4836 19.1242 24.228L19.0259 24.1428L14.2685 19.3634C13.9276 19.0209 13.9289 18.4669 14.2714 18.1259C14.5827 17.816 15.0689 17.7889 15.4109 18.0439L15.5088 18.1288L19.6456 22.2845L23.7833 18.1288Z" fill="currentColor"/>
<path d="M8.06445 3.59668C8.50743 3.59668 8.87353 3.92586 8.93147 4.35295L8.93945 4.47168V20.3591C8.93945 20.8423 8.5477 21.2341 8.06445 21.2341C7.62147 21.2341 7.25538 20.9049 7.19744 20.4778L7.18945 20.3591V4.47168C7.18945 3.98843 7.5812 3.59668 8.06445 3.59668Z" fill="currentColor"/>
<path d="M7.4439 3.85366C7.75484 3.54128 8.2428 3.51288 8.58592 3.76847L8.68419 3.85366L13.4416 8.6331C13.7825 8.9756 13.7812 9.52962 13.4387 9.87054C13.1274 10.1805 12.6412 10.2076 12.2993 9.95263L12.2013 9.86768L8.06379 5.71073L3.92679 9.86768C3.61686 10.179 3.13082 10.2084 2.78769 9.95503L2.68935 9.87054C2.37799 9.56061 2.34863 9.07457 2.602 8.73144L2.68649 8.6331L7.4439 3.85366Z" fill="currentColor"/>
</svg>
