<svg width="28" height="28" viewBox="0 0 28 28" fill="none" xmlns="http://www.w3.org/2000/svg">
<path d="M3.20898 2.33325C3.20898 1.85 2.81723 1.45825 2.33398 1.45825C1.85074 1.45825 1.45898 1.85 1.45898 2.33325V14.0669C1.45897 16.76 1.45896 18.8705 1.68036 20.5173C1.90697 22.2028 2.37987 23.5328 3.42381 24.5768C4.46776 25.6207 5.79778 26.0936 7.48331 26.3202C9.13004 26.5416 11.2406 26.5416 13.9337 26.5416H25.6673C26.1506 26.5416 26.5423 26.1498 26.5423 25.6666C26.5423 25.1833 26.1506 24.7916 25.6673 24.7916H14.0007C11.2261 24.7916 9.23313 24.7897 7.71649 24.5858C6.22502 24.3853 5.32585 24.0039 4.66125 23.3393C3.99665 22.6747 3.61527 21.7755 3.41475 20.2841C3.21084 18.7674 3.20898 16.7745 3.20898 13.9999V2.33325Z" fill="currentColor"/>
<path d="M22.8527 8.71073C23.1533 8.33229 23.0901 7.78189 22.7117 7.48136C22.3332 7.18084 21.7828 7.244 21.4823 7.62244L17.8446 12.2032C17.5585 12.5635 17.3708 12.7991 17.2161 12.9689C17.0649 13.1349 16.9939 13.182 16.9616 13.1992C16.7157 13.3307 16.4219 13.3371 16.1705 13.2165C16.1375 13.2006 16.0645 13.1567 15.9062 12.9974C15.7444 12.8345 15.5466 12.6073 15.2451 12.2598L15.2262 12.2381C14.9487 11.9182 14.712 11.6454 14.5033 11.4354C14.2862 11.2171 14.0489 11.0134 13.755 10.8723C13.0008 10.5104 12.1194 10.5296 11.3817 10.9239C11.0942 11.0776 10.8659 11.2914 10.6586 11.519C10.4591 11.7379 10.2346 12.0207 9.9712 12.3524L6.31544 16.9558C6.01491 17.3342 6.07806 17.8846 6.45649 18.1851C6.83492 18.4857 7.38533 18.4225 7.68586 18.0441L11.3237 13.4632C11.6099 13.1029 11.7976 12.8673 11.9522 12.6976C12.1034 12.5316 12.1744 12.4845 12.2067 12.4672C12.4526 12.3358 12.7464 12.3294 12.9978 12.45C13.0308 12.4659 13.1038 12.5098 13.2621 12.6691C13.424 12.8319 13.6217 13.0591 13.9233 13.4067L13.9421 13.4284C14.2196 13.7483 14.4563 14.021 14.6651 14.2311C14.8821 14.4494 15.1194 14.6531 15.4134 14.7942C16.1675 15.1561 17.049 15.1369 17.7867 14.7425C18.0742 14.5888 18.3025 14.375 18.5098 14.1474C18.7092 13.9285 18.9338 13.6457 19.1971 13.3141L22.8527 8.71073Z" fill="currentColor"/>
</svg>
