<svg width="28" height="29" viewBox="0 0 28 29" fill="none" xmlns="http://www.w3.org/2000/svg">
<path fill-rule="evenodd" clip-rule="evenodd" d="M13.6962 4.58325C8.39598 4.58325 4.08398 8.89408 4.08398 14.1943C4.08398 19.4944 8.39598 23.8064 13.6962 23.8064C18.9952 23.8064 23.3071 19.4944 23.3071 14.1943C23.3071 8.89408 18.9952 4.58325 13.6962 4.58325ZM13.6962 25.5564C7.43115 25.5564 2.33398 20.4593 2.33398 14.1943C2.33398 7.92925 7.43115 2.83325 13.6962 2.83325C19.9612 2.83325 25.0571 7.92925 25.0571 14.1943C25.0571 20.4593 19.9612 25.5564 13.6962 25.5564Z" fill="currentColor"/>
<path fill-rule="evenodd" clip-rule="evenodd" d="M25.0999 27.0085C24.8771 27.0085 24.6531 26.9233 24.4816 26.753L20.3702 22.6533C20.0284 22.3115 20.0272 21.7573 20.3691 21.4155C20.7097 21.0713 21.2639 21.0737 21.6069 21.4132L25.7182 25.514C26.0601 25.8558 26.0612 26.4088 25.7194 26.7507C25.5491 26.9233 25.3239 27.0085 25.0999 27.0085Z" fill="currentColor"/>
</svg>
