<svg width="28" height="28" viewBox="0 0 28 28" fill="none" xmlns="http://www.w3.org/2000/svg">
<path fill-rule="evenodd" clip-rule="evenodd" d="M24.6203 9.33746C24.5542 9.33328 24.4822 9.33331 24.4076 9.33334L24.389 9.33334H21.4624C19.0501 9.33334 16.986 11.2322 16.986 13.7083C16.986 16.1845 19.0501 18.0833 21.4624 18.0833H24.389L24.4076 18.0833C24.4822 18.0834 24.5542 18.0834 24.6203 18.0792C25.6002 18.0174 26.4667 17.2506 26.5396 16.1796C26.5443 16.1094 26.5443 16.0337 26.5443 15.9635L26.5443 15.9445V11.4722L26.5443 11.4532C26.5443 11.383 26.5443 11.3073 26.5396 11.2371C26.4667 10.1661 25.6002 9.39933 24.6203 9.33746ZM21.2029 14.875C21.8239 14.875 22.3274 14.3527 22.3274 13.7083C22.3274 13.064 21.8239 12.5417 21.2029 12.5417C20.5819 12.5417 20.0784 13.064 20.0784 13.7083C20.0784 14.3527 20.5819 14.875 21.2029 14.875Z" fill="currentColor"/>
<path fill-rule="evenodd" clip-rule="evenodd" d="M24.4069 19.8333C24.5808 19.8288 24.7124 19.99 24.6652 20.1574C24.431 20.9886 24.0593 21.6971 23.4628 22.2935C22.5897 23.1666 21.4826 23.5541 20.1148 23.738C18.7857 23.9167 17.0875 23.9167 14.9434 23.9167H12.4785C10.3344 23.9167 8.63616 23.9167 7.30708 23.738C5.93925 23.5541 4.83215 23.1666 3.95906 22.2935C3.08596 21.4205 2.69849 20.3134 2.5146 18.9455C2.3359 17.6164 2.33592 15.9182 2.33594 13.7742V13.6425C2.33592 11.4985 2.3359 9.80022 2.5146 8.47114C2.69849 7.10332 3.08596 5.99621 3.95905 5.12312C4.83214 4.25003 5.93925 3.86256 7.30708 3.67866C8.63616 3.49997 10.3344 3.49998 12.4784 3.5L14.9434 3.5C17.0875 3.49998 18.7857 3.49997 20.1148 3.67866C21.4826 3.86256 22.5897 4.25003 23.4628 5.12312C24.0593 5.71961 24.431 6.42803 24.6652 7.25921C24.7124 7.42671 24.5808 7.58785 24.4068 7.58334L21.4623 7.58334C18.1529 7.58334 15.2359 10.1977 15.2359 13.7083C15.2359 17.219 18.1529 19.8333 21.4623 19.8333L24.4069 19.8333ZM6.71094 8.16667C6.22769 8.16667 5.83594 8.55842 5.83594 9.04167C5.83594 9.52492 6.22769 9.91667 6.71094 9.91667H11.3776C11.8609 9.91667 12.2526 9.52492 12.2526 9.04167C12.2526 8.55842 11.8609 8.16667 11.3776 8.16667H6.71094Z" fill="currentColor"/>
</svg>
