<svg width="46" height="46" viewBox="0 0 46 46" fill="none" xmlns="http://www.w3.org/2000/svg">
<path d="M42 3L3.68213 20.7533C2.69469 21.2102 2.20221 21.4414 2.07472 21.7395C2.01946 21.8669 1.99414 22.0079 2.00114 22.1492C2.00813 22.2905 2.04722 22.4275 2.11472 22.5473C2.27221 22.8259 2.78468 22.993 3.81462 23.3301L18.2513 28.0714M42 3L36.8378 39.3507C36.7378 40.0583 36.6878 40.4121 36.5203 40.6043C36.4495 40.6902 36.3633 40.7586 36.2672 40.8052C36.1712 40.8517 36.0675 40.8753 35.9628 40.8745C35.7204 40.8745 35.4504 40.674 34.9104 40.2728L27.5858 34.824M42 3L18.2513 28.0714M18.2513 28.0714L18.6413 40.05C18.6413 40.9804 18.6413 41.4456 18.8138 41.6796C18.9638 41.8857 19.1888 42.0027 19.4288 42C19.7037 41.9972 20.0287 41.6991 20.6787 41.1085L27.5858 34.824M18.2513 28.0714L27.5858 34.824" stroke="currentColor" stroke-width="1.2" stroke-linecap="round" stroke-linejoin="round"/>
</svg>
