<svg width="28" height="28" viewBox="0 0 28 28" fill="none" xmlns="http://www.w3.org/2000/svg">
<path d="M22.1673 14.0001C22.1673 14.6444 21.645 15.1667 21.0007 15.1667C20.3563 15.1667 19.834 14.6444 19.834 14.0001C19.834 13.3558 20.3563 12.8334 21.0007 12.8334C21.645 12.8334 22.1673 13.3558 22.1673 14.0001Z" fill="currentColor"/>
<path fill-rule="evenodd" clip-rule="evenodd" d="M11.6015 3.79175H15.2331C17.3772 3.79173 19.0754 3.79172 20.4045 3.97041C21.7723 4.15431 22.8794 4.54177 23.7525 5.41486C24.831 6.49332 25.1747 7.93765 25.2994 9.81184C25.9729 10.1082 26.4814 10.7349 26.5375 11.5288C26.5424 11.5991 26.5424 11.6748 26.5423 11.7449C26.5423 11.7513 26.5423 11.7577 26.5423 11.764V16.2362C26.5423 16.2425 26.5423 16.2488 26.5423 16.2552C26.5424 16.3254 26.5424 16.4011 26.5375 16.4713C26.4814 17.2652 25.9729 17.892 25.2994 18.1883C25.1747 20.0625 24.831 21.5068 23.7525 22.5853C22.8794 23.4584 21.7723 23.8459 20.4045 24.0298C19.0754 24.2084 17.3772 24.2084 15.2331 24.2084H11.6015C9.45745 24.2084 7.75921 24.2084 6.43012 24.0298C5.0623 23.8459 3.95519 23.4584 3.0821 22.5853C2.20901 21.7122 1.82154 20.6051 1.63764 19.2373C1.45895 17.9082 1.45897 16.21 1.45898 14.0659V13.9343C1.45897 11.7902 1.45895 10.092 1.63764 8.76289C1.82154 7.39506 2.20901 6.28796 3.0821 5.41487C3.95519 4.54178 5.0623 4.15431 6.43012 3.97041C7.75921 3.79172 9.45745 3.79173 11.6015 3.79175ZM23.5299 18.3751H21.2699C18.7671 18.3751 16.6257 16.4763 16.6257 14.0001C16.6257 11.5239 18.7671 9.62508 21.2699 9.62508H23.5299C23.3971 8.06005 23.0967 7.23392 22.5151 6.6523C22.0214 6.15856 21.3451 5.86261 20.1713 5.7048C18.9724 5.54361 17.3919 5.54175 15.1673 5.54175H11.6673C9.44269 5.54175 7.86225 5.54361 6.66331 5.7048C5.48954 5.86261 4.81328 6.15856 4.31954 6.6523C3.82579 7.14605 3.52985 7.8223 3.37204 8.99607C3.21084 10.195 3.20899 11.7755 3.20899 14.0001C3.20899 16.2247 3.21084 17.8052 3.37204 19.0041C3.52985 20.1779 3.82579 20.8541 4.31954 21.3479C4.81328 21.8416 5.48954 22.1376 6.66331 22.2954C7.86225 22.4566 9.44269 22.4584 11.6673 22.4584H15.1673C17.3919 22.4584 18.9724 22.4566 20.1713 22.2954C21.3451 22.1376 22.0214 21.8416 22.5151 21.3479C23.0967 20.7662 23.3971 19.9401 23.5299 18.3751ZM6.12565 9.33342C6.12565 8.85017 6.5174 8.45842 7.00065 8.45842H11.6673C12.1506 8.45842 12.5423 8.85017 12.5423 9.33342C12.5423 9.81666 12.1506 10.2084 11.6673 10.2084H7.00065C6.5174 10.2084 6.12565 9.81666 6.12565 9.33342ZM24.4114 11.3753C24.3877 11.3751 24.3567 11.3751 24.3062 11.3751H21.2699C19.6092 11.3751 18.3757 12.6103 18.3757 14.0001C18.3757 15.3899 19.6092 16.6251 21.2699 16.6251H24.3062C24.3567 16.6251 24.3877 16.6251 24.4114 16.6248C24.426 16.6247 24.4337 16.6244 24.4373 16.6243L24.4399 16.6242C24.6804 16.6096 24.7839 16.4472 24.7917 16.3496C24.7917 16.3496 24.7919 16.3423 24.792 16.3318C24.7923 16.3111 24.7923 16.2835 24.7923 16.2362V11.764C24.7923 11.7167 24.7923 11.6891 24.792 11.6684C24.7919 11.6579 24.7917 11.6505 24.7917 11.6505C24.7838 11.5529 24.6804 11.3906 24.4399 11.376C24.4399 11.376 24.4342 11.3756 24.4114 11.3753Z" fill="currentColor"/>
</svg>
