<svg width="28" height="29" viewBox="0 0 28 29" fill="none" xmlns="http://www.w3.org/2000/svg">
<path fill-rule="evenodd" clip-rule="evenodd" d="M13.8699 15.2218H13.9072C17.3232 15.2218 20.101 12.444 20.101 9.02801C20.101 5.61201 17.3232 2.83301 13.9072 2.83301C10.49 2.83301 7.71104 5.61201 7.71104 9.02451C7.69937 12.4312 10.4609 15.2113 13.8699 15.2218ZM9.37704 9.02801C9.37704 6.53017 11.4094 4.49901 13.9072 4.49901C16.4039 4.49901 18.435 6.53017 18.435 9.02801C18.435 11.5247 16.4039 13.557 13.9072 13.557H13.8734C11.386 13.5477 9.36887 11.5177 9.37704 9.02801Z" fill="currentColor"/>
<path fill-rule="evenodd" clip-rule="evenodd" d="M4.66602 21.7019C4.66602 26.0151 11.6217 26.0151 13.9072 26.0151C17.8727 26.0151 23.146 25.5706 23.146 21.7252C23.146 17.4121 16.1927 17.4121 13.9072 17.4121C9.94052 17.4121 4.66602 17.8566 4.66602 21.7019ZM6.41602 21.7019C6.41602 20.0161 8.93602 19.1621 13.9072 19.1621C18.8772 19.1621 21.396 20.0242 21.396 21.7252C21.396 23.4111 18.8772 24.2651 13.9072 24.2651C8.93602 24.2651 6.41602 23.4029 6.41602 21.7019Z" fill="currentColor"/>
</svg>
