<svg width="51" height="51" viewBox="0 0 51 51" fill="none" xmlns="http://www.w3.org/2000/svg">
<path d="M10.3594 8.76562C8.45728 8.76563 6.63308 9.52123 5.28809 10.8662C3.94311 12.2112 3.1875 14.0354 3.1875 15.9375V35.0625C3.1875 36.9646 3.94311 38.7888 5.28809 40.1338C6.63308 41.4788 8.45728 42.2344 10.3594 42.2344H29.4844C31.3865 42.2344 33.2107 41.4788 34.5557 40.1338C35.9006 38.7888 36.6562 36.9646 36.6562 35.0625V32.6974L43.0647 37.6332C45.0043 39.125 47.8125 37.7432 47.8125 35.2968V15.7032C47.8125 13.2568 45.0043 11.875 43.0647 13.3668L36.6562 18.3026V15.9375C36.6562 14.0354 35.9006 12.2112 34.5557 10.8662C33.2107 9.52123 31.3865 8.76563 29.4844 8.76562H10.3594ZM35.0625 19.9139V35.0625C35.0625 36.5419 34.4748 37.9607 33.4287 39.0068C32.3826 40.0529 30.9638 40.6406 29.4844 40.6406H10.3594C8.87996 40.6406 7.46115 40.0529 6.41505 39.0068C5.36894 37.9607 4.78125 36.5419 4.78125 35.0625V15.9375C4.78125 14.4581 5.36894 13.0393 6.41505 11.9932C7.46115 10.9471 8.87996 10.3594 10.3594 10.3594H29.4844C30.9638 10.3594 32.3826 10.9471 33.4287 11.9932C34.4748 13.0393 35.0625 14.4581 35.0625 15.9375V19.9139ZM36.6562 30.6861V20.3139L44.0369 14.6306C44.2373 14.4761 44.4771 14.3808 44.7289 14.3555C44.9807 14.3303 45.2346 14.3761 45.4617 14.4877C45.6888 14.5994 45.8802 14.7724 46.014 14.9873C46.1478 15.2021 46.2187 15.4501 46.2188 15.7032V35.2968C46.2187 35.5499 46.1478 35.7979 46.014 36.0127C45.8802 36.2276 45.6888 36.4006 45.4617 36.5123C45.2346 36.6239 44.9807 36.6697 44.7289 36.6445C44.4771 36.6192 44.2373 36.5239 44.0369 36.3694L36.6562 30.6861Z" fill="currentColor"/>
</svg>
