<svg width="79" height="79" viewBox="0 0 79 79" fill="none" xmlns="http://www.w3.org/2000/svg">
<path d="M39.5026 23.8646C40.866 23.8646 41.9713 24.9699 41.9713 26.3333V42.7917C41.9713 44.1551 40.866 45.2604 39.5026 45.2604C38.1391 45.2604 37.0338 44.1551 37.0338 42.7917V26.3333C37.0338 24.9699 38.1391 23.8646 39.5026 23.8646Z" fill="currentColor"/>
<path d="M39.5026 55.9583C41.3205 55.9583 42.7942 54.4846 42.7942 52.6667C42.7942 50.8487 41.3205 49.375 39.5026 49.375C37.6846 49.375 36.2109 50.8487 36.2109 52.6667C36.2109 54.4846 37.6846 55.9583 39.5026 55.9583Z" fill="currentColor"/>
<path fill-rule="evenodd" clip-rule="evenodd" d="M27.305 14.7349C30.8334 10.2533 34.5711 7.40625 39.5025 7.40625C44.434 7.40625 48.1717 10.2533 51.7 14.7349C55.1701 19.1425 58.8475 25.6626 63.5524 34.0047L64.9859 36.5463C68.8754 43.4422 71.9473 48.8887 73.5609 53.2604C75.2099 57.728 75.6016 61.7843 73.1071 65.3624C70.6865 68.8345 66.6478 70.2553 61.5539 70.9258C56.4796 71.5938 49.6557 71.5938 40.901 71.5938H38.1042C29.3495 71.5938 22.5255 71.5938 17.4511 70.9258C12.3572 70.2553 8.31856 68.8345 5.89794 65.3624C3.40349 61.7843 3.79521 57.728 5.44417 53.2604C7.05776 48.8888 10.1297 43.4423 14.0191 36.5464L15.4524 34.0051C20.1575 25.6628 23.8349 19.1426 27.305 14.7349ZM31.1845 17.7892C27.9783 21.8615 24.4829 28.0446 19.6372 36.636L18.4402 38.7584C14.4039 45.9149 11.5355 51.0164 10.0762 54.9701C8.63566 58.873 8.83539 60.9423 9.94831 62.5387C11.1351 64.241 13.3626 65.4075 18.0955 66.0306C22.8092 66.6511 29.307 66.6562 38.3055 66.6562H40.6996C49.698 66.6562 56.1959 66.6511 60.9095 66.0306C65.6425 65.4075 67.87 64.241 69.0568 62.5387C70.1697 60.9423 70.3694 58.873 68.9288 54.9701C67.4695 51.0164 64.6012 45.9149 60.5649 38.7584L59.3678 36.636C54.5222 28.0446 51.0267 21.8615 47.8206 17.7892C44.6443 13.7547 42.1773 12.3438 39.5025 12.3438C36.8278 12.3438 34.3608 13.7547 31.1845 17.7892Z" fill="currentColor"/>
</svg>
