<svg width="46" height="46" viewBox="0 0 46 46" fill="none" xmlns="http://www.w3.org/2000/svg">
<path d="M42.1673 23C42.1673 33.5858 33.5864 42.1667 23.0007 42.1667C19.636 42.1713 16.3299 41.2866 13.4173 39.6022L3.83399 41.2084L5.42866 30.6667C4.37515 28.2481 3.83227 25.6381 3.83399 23C3.83399 12.4143 12.4149 3.83337 23.0007 3.83337C33.5864 3.83337 42.1673 12.4143 42.1673 23Z" stroke="currentColor" stroke-width="1.2" stroke-linecap="round" stroke-linejoin="round"/>
<path d="M24.8401 26.5804L28.8267 25.8022L32.5834 27.2455V30.7396C32.5834 31.903 31.5829 32.7904 30.4559 32.5412C27.5368 31.9011 22.2334 30.2911 18.5496 26.5804C15.0421 23.048 13.8441 18.1279 13.4359 15.412C13.273 14.3252 14.1336 13.4167 15.2241 13.4167H18.8543L20.263 17.1907L19.5175 21.2176" stroke="currentColor" stroke-width="1.2" stroke-linecap="round" stroke-linejoin="round"/>
</svg>
