<svg width="0" height="0" class="hidden">
  <symbol fill="none" xmlns="http://www.w3.org/2000/svg" viewBox="0 0 28 29" id="ic_answers">
    <path fill-rule="evenodd" clip-rule="evenodd" d="M12.5447 2.82583C12.5488 3.30907 12.1604 3.70412 11.6772 3.70822C9.68264 3.72513 8.21269 3.78999 7.07393 4.01305C5.9596 4.23132 5.22711 4.58946 4.66169 5.15487C3.99687 5.8197 3.61538 6.71916 3.41481 8.21105C3.21084 9.7281 3.20898 11.7216 3.20898 14.4969C3.20898 17.2722 3.21084 19.2657 3.41481 20.7827C3.61538 22.2746 3.99687 23.1741 4.66169 23.8389C5.32652 24.5037 6.22598 24.8852 7.71786 25.0858C9.23492 25.2897 11.2284 25.2916 14.0037 25.2916C16.779 25.2916 18.7725 25.2897 20.2895 25.0858C21.7814 24.8852 22.6809 24.5037 23.3457 23.8389C23.9111 23.2735 24.2692 22.541 24.4875 21.4266C24.7106 20.2879 24.7754 18.8179 24.7924 16.8234C24.7964 16.3402 25.1915 15.9518 25.6747 15.9559C26.158 15.9599 26.5464 16.355 26.5423 16.8382C26.5254 18.8267 26.4628 20.4462 26.2049 21.763C25.9422 23.1043 25.4657 24.1937 24.5831 25.0763C23.539 26.1205 22.2087 26.5935 20.5227 26.8202C18.8756 27.0416 16.7645 27.0416 14.0706 27.0416H13.9368C11.2429 27.0416 9.13183 27.0416 7.48468 26.8202C5.79874 26.5935 4.46842 26.1205 3.42426 25.0763C2.38009 24.0321 1.90708 22.7018 1.68041 21.0159C1.45896 19.3687 1.45897 17.2577 1.45898 14.5638V14.4299C1.45897 11.7361 1.45896 9.62501 1.68041 7.97786C1.90708 6.29192 2.38009 4.9616 3.42426 3.91744C4.30685 3.03485 5.39623 2.55842 6.73753 2.29568C8.05441 2.03774 9.67385 1.97514 11.6623 1.95828C12.1456 1.95419 12.5406 2.3426 12.5447 2.82583ZM19.2153 2.21453C19.557 1.87283 20.111 1.87283 20.4527 2.21453L26.286 8.04787C26.6277 8.38958 26.6277 8.9436 26.286 9.2853L20.4527 15.1186C20.111 15.4603 19.557 15.4603 19.2153 15.1186C18.8736 14.7769 18.8736 14.2229 19.2153 13.8812L23.5549 9.54159H16.334C14.5239 9.54159 13.4556 10.4248 13.0814 10.8008L12.8572 11.0261L12.6349 11.2473C12.2588 11.6215 11.3757 12.6899 11.3757 14.4999V17.9999C11.3757 18.4832 10.9839 18.8749 10.5007 18.8749C10.0174 18.8749 9.62565 18.4832 9.62565 17.9999V14.4999C9.62565 12.0688 10.8238 10.5807 11.4004 10.0069C11.4004 10.0069 11.4004 10.0069 11.4004 10.0069L11.6227 9.78566L11.8409 9.56638C12.4147 8.98979 13.9029 7.79159 16.334 7.79159H23.5549L19.2153 3.45197C18.8736 3.11026 18.8736 2.55624 19.2153 2.21453Z" fill="currentColor"></path>
  </symbol>
  <symbol fill="none" xmlns="http://www.w3.org/2000/svg" viewBox="0 0 28 28" id="ic_arr_hor">
    <path d="M18.7027 22.7857C19.0133 22.4751 19.0416 21.989 18.7874 21.6464L18.7027 21.5483L11.1552 14.0003L18.7027 6.45238C19.0133 6.14173 19.0416 5.65562 18.7874 5.31308L18.7027 5.21494C18.3921 4.90429 17.906 4.87605 17.5634 5.13022L17.4653 5.21494L9.2986 13.3816C8.98796 13.6923 8.95971 14.1784 9.21388 14.5209L9.2986 14.619L17.4653 22.7857C17.807 23.1274 18.361 23.1274 18.7027 22.7857Z" fill="currentColor"></path>
  </symbol>
  <symbol fill="none" xmlns="http://www.w3.org/2000/svg" viewBox="0 0 24 24" id="ic_arr_ver">
    <path d="M4.47065 10.5412C4.73691 10.2749 5.15358 10.2507 5.44719 10.4686L5.53131 10.5412L12.001 17.0105L18.4706 10.5412C18.7369 10.2749 19.1536 10.2507 19.4472 10.4686L19.5313 10.5412C19.7976 10.8075 19.8218 11.2241 19.6039 11.5177L19.5313 11.6019L12.5313 18.6019C12.265 18.8681 11.8484 18.8923 11.5548 18.6745L11.4706 18.6019L4.47065 11.6019C4.17775 11.309 4.17775 10.8341 4.47065 10.5412Z" fill="currentColor"></path>
  </symbol>
  <symbol fill="none" xmlns="http://www.w3.org/2000/svg" viewBox="0 0 28 29" id="ic_black_list">
    <path fill-rule="evenodd" clip-rule="evenodd" d="M14.0007 1.95837C7.07408 1.95837 1.45898 7.57347 1.45898 14.5C1.45898 21.4266 7.07408 27.0417 14.0007 27.0417C20.9272 27.0417 26.5423 21.4266 26.5423 14.5C26.5423 7.57347 20.9272 1.95837 14.0007 1.95837ZM3.20898 14.5C3.20898 8.53997 8.04058 3.70837 14.0007 3.70837C16.6659 3.70837 19.1055 4.67457 20.9883 6.27581C20.9805 6.28304 20.9728 6.29043 20.9653 6.29799L5.79863 21.4644C5.79102 21.472 5.78358 21.4797 5.77631 21.4875C4.17514 19.6048 3.20898 17.1652 3.20898 14.5ZM7.0129 22.7242C8.89569 24.3255 11.3353 25.2917 14.0007 25.2917C19.9607 25.2917 24.7923 20.4601 24.7923 14.5C24.7923 11.8348 23.8261 9.3952 22.2249 7.51243C22.2177 7.5202 22.2103 7.52787 22.2027 7.53544L7.03605 22.7018C7.02844 22.7094 7.02072 22.7169 7.0129 22.7242Z" fill="currentColor"></path>
  </symbol>
  <symbol fill="none" xmlns="http://www.w3.org/2000/svg" viewBox="0 0 28 28" id="ic_arrow_hor">
    <path d="M18.6667 5.83333C18.6667 6.69899 19.5218 7.99166 20.3875 9.07666C21.5005 10.4767 22.8305 11.6982 24.3553 12.6303C25.4987 13.3292 26.8847 14 28 14M28 14C26.8847 14 25.4975 14.6708 24.3553 15.3697C22.8305 16.303 21.5005 17.5245 20.3875 18.9222C19.5218 20.0083 18.6667 21.3033 18.6667 22.1667M28 14H0" stroke="currentColor"></path>
  </symbol>
  <symbol fill="none" xmlns="http://www.w3.org/2000/svg" viewBox="0 0 28 28" id="ic_calendar">
    <path d="M19.8359 16.3334C20.4803 16.3334 21.0026 15.8111 21.0026 15.1667C21.0026 14.5224 20.4803 14.0001 19.8359 14.0001C19.1916 14.0001 18.6693 14.5224 18.6693 15.1667C18.6693 15.8111 19.1916 16.3334 19.8359 16.3334Z" fill="currentColor"></path>
    <path d="M19.8359 21.0001C20.4803 21.0001 21.0026 20.4777 21.0026 19.8334C21.0026 19.1891 20.4803 18.6667 19.8359 18.6667C19.1916 18.6667 18.6693 19.1891 18.6693 19.8334C18.6693 20.4777 19.1916 21.0001 19.8359 21.0001Z" fill="currentColor"></path>
    <path d="M15.1693 15.1667C15.1693 15.8111 14.6469 16.3334 14.0026 16.3334C13.3583 16.3334 12.8359 15.8111 12.8359 15.1667C12.8359 14.5224 13.3583 14.0001 14.0026 14.0001C14.6469 14.0001 15.1693 14.5224 15.1693 15.1667Z" fill="currentColor"></path>
    <path d="M15.1693 19.8334C15.1693 20.4777 14.6469 21.0001 14.0026 21.0001C13.3583 21.0001 12.8359 20.4777 12.8359 19.8334C12.8359 19.1891 13.3583 18.6667 14.0026 18.6667C14.6469 18.6667 15.1693 19.1891 15.1693 19.8334Z" fill="currentColor"></path>
    <path d="M8.16927 16.3334C8.8136 16.3334 9.33594 15.8111 9.33594 15.1667C9.33594 14.5224 8.8136 14.0001 8.16927 14.0001C7.52494 14.0001 7.0026 14.5224 7.0026 15.1667C7.0026 15.8111 7.52494 16.3334 8.16927 16.3334Z" fill="currentColor"></path>
    <path d="M8.16927 21.0001C8.8136 21.0001 9.33594 20.4777 9.33594 19.8334C9.33594 19.1891 8.8136 18.6667 8.16927 18.6667C7.52494 18.6667 7.0026 19.1891 7.0026 19.8334C7.0026 20.4777 7.52494 21.0001 8.16927 21.0001Z" fill="currentColor"></path>
    <path fill-rule="evenodd" clip-rule="evenodd" d="M8.16927 2.04175C8.65252 2.04175 9.04427 2.4335 9.04427 2.91675V3.80659C9.8166 3.79173 10.6675 3.79174 11.6033 3.79175H16.4018C17.3376 3.79174 18.1886 3.79173 18.9609 3.80659V2.91675C18.9609 2.4335 19.3527 2.04175 19.8359 2.04175C20.3192 2.04175 20.7109 2.4335 20.7109 2.91675V3.88168C21.0142 3.9048 21.3014 3.93387 21.5731 3.9704C22.941 4.1543 24.0481 4.54177 24.9212 5.41486C25.7942 6.28796 26.1817 7.39506 26.3656 8.76289C26.5443 10.092 26.5443 11.7902 26.5443 13.9342V16.3992C26.5443 18.5433 26.5443 20.2415 26.3656 21.5706C26.1817 22.9384 25.7942 24.0455 24.9212 24.9186C24.0481 25.7917 22.941 26.1792 21.5731 26.3631C20.2441 26.5418 18.5458 26.5418 16.4018 26.5417H11.6035C9.45943 26.5418 7.76115 26.5418 6.43208 26.3631C5.06425 26.1792 3.95715 25.7917 3.08406 24.9186C2.21096 24.0455 1.82349 22.9384 1.6396 21.5706C1.46091 20.2415 1.46092 18.5433 1.46094 16.3992V13.9343C1.46092 11.7902 1.46091 10.092 1.6396 8.76289C1.82349 7.39506 2.21096 6.28796 3.08406 5.41486C3.95715 4.54177 5.06425 4.1543 6.43208 3.9704C6.70383 3.93387 6.991 3.9048 7.29427 3.88168V2.91675C7.29427 2.4335 7.68602 2.04175 8.16927 2.04175ZM6.66526 5.7048C5.49149 5.86261 4.81524 6.15856 4.32149 6.6523C3.82775 7.14605 3.5318 7.8223 3.37399 8.99607C3.34726 9.19485 3.32492 9.40413 3.30623 9.62508H24.699C24.6803 9.40413 24.6579 9.19486 24.6312 8.99607C24.4734 7.8223 24.1775 7.14605 23.6837 6.6523C23.19 6.15856 22.5137 5.86261 21.3399 5.7048C20.141 5.54361 18.5606 5.54175 16.3359 5.54175H11.6693C9.44465 5.54175 7.8642 5.54361 6.66526 5.7048ZM3.21094 14.0001C3.21094 13.0037 3.21131 12.1366 3.2262 11.3751H24.779C24.7939 12.1366 24.7943 13.0037 24.7943 14.0001V16.3334C24.7943 18.558 24.7924 20.1385 24.6312 21.3374C24.4734 22.5112 24.1775 23.1874 23.6837 23.6812C23.19 24.1749 22.5137 24.4709 21.3399 24.6287C20.141 24.7899 18.5606 24.7917 16.3359 24.7917H11.6693C9.44465 24.7917 7.8642 24.7899 6.66526 24.6287C5.49149 24.4709 4.81524 24.1749 4.32149 23.6812C3.82775 23.1874 3.5318 22.5112 3.37399 21.3374C3.2128 20.1385 3.21094 18.558 3.21094 16.3334V14.0001Z" fill="currentColor"></path>
  </symbol>
  <symbol fill="none" xmlns="http://www.w3.org/2000/svg" viewBox="0 0 28 28" id="ic_comments">
    <path fill-rule="evenodd" clip-rule="evenodd" d="M14.0007 3.20825C8.04058 3.20825 3.20898 8.03985 3.20898 13.9999C3.20898 15.7278 3.61443 17.3585 4.33458 18.8044C4.62362 19.3847 4.73492 20.0786 4.55256 20.7601L3.85768 23.3572C3.73006 23.8341 4.16642 24.2705 4.64339 24.1429L7.24044 23.448C7.922 23.2656 8.61591 23.377 9.19621 23.666C10.6421 24.3861 12.2728 24.7916 14.0007 24.7916C19.9607 24.7916 24.7923 19.96 24.7923 13.9999C24.7923 8.03985 19.9607 3.20825 14.0007 3.20825ZM1.45898 13.9999C1.45898 7.07335 7.07408 1.45825 14.0007 1.45825C20.9272 1.45825 26.5423 7.07335 26.5423 13.9999C26.5423 20.9265 20.9272 26.5416 14.0007 26.5416C11.996 26.5416 10.0988 26.0706 8.41599 25.2324C8.16488 25.1074 7.90848 25.0808 7.69277 25.1385L5.09572 25.8334C3.31791 26.3091 1.69147 24.6826 2.16715 22.9048L2.86202 20.3078C2.91974 20.0921 2.89321 19.8357 2.76813 19.5846C1.92998 17.9018 1.45898 16.0046 1.45898 13.9999ZM8.45898 12.2499C8.45898 11.7667 8.85073 11.3749 9.33398 11.3749H18.6673C19.1506 11.3749 19.5423 11.7667 19.5423 12.2499C19.5423 12.7332 19.1506 13.1249 18.6673 13.1249H9.33398C8.85073 13.1249 8.45898 12.7332 8.45898 12.2499ZM8.45898 16.3333C8.45898 15.85 8.85073 15.4583 9.33398 15.4583H15.7507C16.2339 15.4583 16.6257 15.85 16.6257 16.3333C16.6257 16.8165 16.2339 17.2083 15.7507 17.2083H9.33398C8.85073 17.2083 8.45898 16.8165 8.45898 16.3333Z" fill="currentColor"></path>
  </symbol>
  <symbol fill="none" xmlns="http://www.w3.org/2000/svg" viewBox="0 0 28 28" id="ic_close">
    <path d="M7 21L21 7M21 21L7 7" stroke="currentColor" stroke-width="1.5" stroke-miterlimit="10" stroke-linecap="round" stroke-linejoin="round"></path>
  </symbol>
  <symbol fill="none" xmlns="http://www.w3.org/2000/svg" viewBox="0 0 28 28" id="ic_check">
    <path fill-rule="evenodd" clip-rule="evenodd" d="M13.7756 1.16675H13.6417C10.9486 1.16673 8.83805 1.16672 7.19132 1.38812C5.50579 1.61473 4.17576 2.08763 3.13182 3.13157C2.08787 4.17552 1.61498 5.50555 1.38836 7.19107C1.16697 8.8378 1.16698 10.9483 1.16699 13.6415V13.7754C1.16698 16.4685 1.16697 18.579 1.38836 20.2258C1.61498 21.9113 2.08787 23.2413 3.13182 24.2853C4.17576 25.3292 5.50579 25.8021 7.19132 26.0287C8.83805 26.2501 10.9486 26.2501 13.6417 26.2501H13.7756C16.4687 26.2501 18.5793 26.2501 20.226 26.0287C21.9115 25.8021 23.2416 25.3292 24.2855 24.2853C25.3294 23.2413 25.8023 21.9113 26.029 20.2258C26.2504 18.579 26.2503 16.4685 26.2503 13.7753V13.6415C26.2503 10.9484 26.2504 8.83781 26.029 7.19107C25.8023 5.50555 25.3294 4.17552 24.2855 3.13157C23.2416 2.08763 21.9115 1.61473 20.226 1.38812C18.5793 1.16672 16.4687 1.16673 13.7756 1.16675ZM4.36926 4.36901C5.03385 3.70441 5.93303 3.32304 7.4245 3.12251C8.94114 2.91861 10.9341 2.91675 13.7087 2.91675C16.4833 2.91675 18.4762 2.91861 19.9928 3.12251C21.4843 3.32304 22.3835 3.70441 23.0481 4.36901C23.7127 5.03361 24.094 5.93278 24.2946 7.42425C24.4985 8.9409 24.5003 10.9338 24.5003 13.7084C24.5003 16.483 24.4985 18.4759 24.2946 19.9926C24.094 21.484 23.7127 22.3832 23.0481 23.0478C22.3835 23.7124 21.4843 24.0938 19.9928 24.2943C18.4762 24.4982 16.4833 24.5001 13.7087 24.5001C10.9341 24.5001 8.94114 24.4982 7.4245 24.2943C5.93303 24.0938 5.03385 23.7124 4.36926 23.0478C3.70466 22.3832 3.32328 21.484 3.12276 19.9926C2.91885 18.4759 2.91699 16.483 2.91699 13.7084C2.91699 10.9338 2.91885 8.9409 3.12276 7.42425C3.32328 5.93278 3.70466 5.03361 4.36926 4.36901Z" fill="currentColor"></path>
  </symbol>
  <symbol fill="none" xmlns="http://www.w3.org/2000/svg" viewBox="0 0 33 32" id="ic_edit">
    <path d="M26.75 16C26.75 15.7348 26.8554 15.4804 27.0429 15.2929C27.2304 15.1054 27.4848 15 27.75 15C28.0152 15 28.2696 15.1054 28.4571 15.2929C28.6446 15.4804 28.75 15.7348 28.75 16V27C28.75 27.2652 28.6446 27.5196 28.4571 27.7071C28.2696 27.8946 28.0152 28 27.75 28H5.75C5.48478 28 5.23043 27.8946 5.04289 27.7071C4.85536 27.5196 4.75 27.2652 4.75 27V5C4.75 4.73478 4.85536 4.48043 5.04289 4.29289C5.23043 4.10536 5.48478 4 5.75 4H16.75C17.0152 4 17.2696 4.10536 17.4571 4.29289C17.6446 4.48043 17.75 4.73478 17.75 5C17.75 5.26522 17.6446 5.51957 17.4571 5.70711C17.2696 5.89464 17.0152 6 16.75 6H6.75V26H26.75V16Z" fill="currentColor"></path>
    <path d="M15.436 17.32L17.086 17.084L27.222 6.95001C27.3175 6.85776 27.3937 6.74742 27.4461 6.62542C27.4985 6.50341 27.5261 6.37219 27.5272 6.23941C27.5284 6.10663 27.5031 5.97495 27.4528 5.85206C27.4025 5.72916 27.3283 5.61751 27.2344 5.52362C27.1405 5.42972 27.0288 5.35547 26.9059 5.30519C26.783 5.25491 26.6513 5.22961 26.5186 5.23076C26.3858 5.23192 26.2546 5.2595 26.1326 5.31191C26.0106 5.36432 25.9002 5.4405 25.808 5.53601L15.67 15.67L15.434 17.32H15.436ZM28.636 4.12001C28.9147 4.39861 29.1359 4.72942 29.2868 5.09352C29.4377 5.45762 29.5153 5.84788 29.5153 6.24201C29.5153 6.63614 29.4377 7.0264 29.2868 7.39051C29.1359 7.75461 28.9147 8.08541 28.636 8.36401L18.266 18.734C18.113 18.8875 17.9144 18.9872 17.7 19.018L14.4 19.49C14.2462 19.5121 14.0894 19.498 13.9419 19.449C13.7945 19.3999 13.6606 19.3171 13.5507 19.2073C13.4408 19.0974 13.3581 18.9635 13.309 18.816C13.2599 18.6686 13.2459 18.5118 13.268 18.358L13.74 15.058C13.7703 14.8438 13.8692 14.6452 14.022 14.492L24.394 4.12201C24.9566 3.5596 25.7195 3.24365 26.515 3.24365C27.3105 3.24365 28.0734 3.5596 28.636 4.12201V4.12001Z" fill="currentColor"></path>
  </symbol>
  <symbol fill="none" xmlns="http://www.w3.org/2000/svg" viewBox="0 0 28 28" id="ic_check_a">
    <path d="M20.2838 10.2021C20.6255 9.86043 20.6255 9.3064 20.2838 8.9647C19.9421 8.62299 19.3881 8.62299 19.0464 8.9647C18.7047 9.3064 11.3672 16.6438 11.3672 16.6438L9.65263 14.9292C9.31092 14.5875 8.7569 14.5875 8.41519 14.9292C8.07348 15.2709 8.07348 15.825 8.41519 16.1667L10.7485 18.5C11.0902 18.8417 11.6443 18.8417 11.986 18.5L20.2838 10.2021Z" fill="currentColor"></path>
    <path fill-rule="evenodd" clip-rule="evenodd" d="M14.0666 1.45825H13.9327C11.2396 1.45824 9.12906 1.45823 7.48233 1.67962C5.79681 1.90624 4.46678 2.37913 3.42283 3.42308C2.37889 4.46702 1.90599 5.79705 1.67938 7.48258C1.45798 9.12931 1.45799 11.2398 1.45801 13.933V14.0669C1.45799 16.76 1.45798 18.8705 1.67938 20.5173C1.90599 22.2028 2.37889 23.5328 3.42283 24.5768C4.46678 25.6207 5.79681 26.0936 7.48233 26.3202C9.12907 26.5416 11.2396 26.5416 13.9327 26.5416H14.0666C16.7597 26.5416 18.8703 26.5416 20.517 26.3202C22.2025 26.0936 23.5326 25.6207 24.5765 24.5768C25.6205 23.5328 26.0934 22.2028 26.32 20.5173C26.5414 18.8705 26.5414 16.76 26.5413 14.0669V13.933C26.5414 11.2399 26.5414 9.12931 26.32 7.48258C26.0934 5.79705 25.6205 4.46702 24.5765 3.42308C23.5326 2.37913 22.2025 1.90624 20.517 1.67962C18.8703 1.45823 16.7597 1.45824 14.0666 1.45825ZM4.66027 4.66052C5.32487 3.99592 6.22404 3.61454 7.71551 3.41402C9.23216 3.21011 11.2251 3.20825 13.9997 3.20825C16.7743 3.20825 18.7672 3.21011 20.2838 3.41402C21.7753 3.61454 22.6745 3.99592 23.3391 4.66052C24.0037 5.32511 24.3851 6.22429 24.5856 7.71576C24.7895 9.2324 24.7913 11.2253 24.7913 13.9999C24.7913 16.7745 24.7895 18.7674 24.5856 20.2841C24.3851 21.7756 24.0037 22.6747 23.3391 23.3393C22.6745 24.0039 21.7753 24.3853 20.2838 24.5858C18.7672 24.7897 16.7743 24.7916 13.9997 24.7916C11.2251 24.7916 9.23216 24.7897 7.71551 24.5858C6.22404 24.3853 5.32487 24.0039 4.66027 23.3393C3.99567 22.6747 3.6143 21.7756 3.41377 20.2841C3.20987 18.7674 3.20801 16.7745 3.20801 13.9999C3.20801 11.2253 3.20987 9.2324 3.41377 7.71576C3.6143 6.22429 3.99567 5.32511 4.66027 4.66052Z" fill="currentColor"></path>
  </symbol>
  <symbol fill="none" xmlns="http://www.w3.org/2000/svg" viewBox="0 0 28 28" id="ic_favorite_a">
    <path d="M2.33398 10.6601C2.33398 16.3335 7.02332 19.3568 10.456 22.0628C11.6673 23.0177 12.834 23.9168 14.0007 23.9168C15.1673 23.9168 16.334 23.0177 17.5453 22.0628C20.978 19.3568 25.6673 16.3335 25.6673 10.6601C25.6673 4.98665 19.2505 0.963164 14.0007 6.41753C8.75084 0.963164 2.33398 4.98665 2.33398 10.6601Z" fill="currentColor"></path>
  </symbol>
  <symbol fill="none" xmlns="http://www.w3.org/2000/svg" viewBox="0 0 17 16" id="ic_file">
    <path d="M15.5146 1.60262C14.8791 0.967187 14.0342 0.617188 13.1355 0.617188C12.2369 0.617188 11.3919 0.967156 10.7565 1.60262L3.46837 8.89073C2.99775 9.36133 2.73859 9.98708 2.73859 10.6526C2.73859 11.3181 2.99775 11.9439 3.46837 12.4145C4.43987 13.386 6.02065 13.386 6.99211 12.4145L13.3823 6.02436L12.6443 5.28643L6.25415 11.6766C5.68955 12.2412 4.77087 12.2411 4.20624 11.6766C3.93274 11.4031 3.78212 11.0394 3.78212 10.6526C3.78212 10.2658 3.93274 9.90217 4.20624 9.62867L11.4944 2.34059C11.9327 1.90225 12.5156 1.66081 13.1355 1.66081C13.7554 1.66081 14.3382 1.90222 14.7766 2.34059C15.215 2.77893 15.4564 3.36174 15.4564 3.98168C15.4564 4.60162 15.215 5.1844 14.7766 5.62277L6.99358 13.4058C5.74836 14.651 3.72221 14.6509 2.47703 13.4058C1.87381 12.8026 1.54162 12.0006 1.54162 11.1475C1.54162 10.2944 1.87384 9.49245 2.47703 8.88923L9.36201 2.00425L8.62408 1.26631L1.73909 8.1513C0.0869696 9.80339 0.0869696 12.4916 1.73909 14.1437C2.56515 14.9698 3.65024 15.3828 4.7353 15.3828C5.82036 15.3828 6.90549 14.9698 7.73152 14.1437L15.5145 6.36068C16.15 5.72524 16.5 4.88034 16.5 3.98165C16.5 3.08296 16.15 2.23806 15.5146 1.60262Z" fill="currentColor"></path>
  </symbol>
  <symbol fill="none" xmlns="http://www.w3.org/2000/svg" viewBox="0 0 28 29" id="ic_forum">
    <path fill-rule="evenodd" clip-rule="evenodd" d="M12.2047 1.95837H15.7966C17.6672 1.95837 19.1336 1.95836 20.3052 2.06975C21.4993 2.18329 22.4771 2.4187 23.3391 2.94691C24.2417 3.50005 25.0006 4.25897 25.5538 5.16161C26.082 6.02357 26.3174 7.00136 26.4309 8.1955C26.5423 9.36705 26.5423 10.8335 26.5423 12.7041V13.9492C26.5423 15.2807 26.5423 16.3247 26.4848 17.168C26.4262 18.0261 26.3052 18.7402 26.0317 19.4005C25.3508 21.0443 24.0449 22.3502 22.4012 23.0311C21.462 23.4201 20.3923 23.5064 18.9278 23.5316C18.4156 23.5404 18.0911 23.5469 17.8437 23.5743C17.6126 23.5999 17.523 23.6374 17.4706 23.6679C17.4153 23.7001 17.3399 23.7587 17.2091 23.9382C17.0675 24.1325 16.9075 24.4009 16.6538 24.8295L16.0214 25.898C15.1189 27.4228 12.8824 27.4228 11.9799 25.898L11.3474 24.8295C11.0937 24.4009 10.9337 24.1325 10.7921 23.9382C10.6613 23.7587 10.586 23.7001 10.5307 23.6679C10.4782 23.6374 10.3886 23.5999 10.1575 23.5743C9.91017 23.5469 9.5857 23.5404 9.07342 23.5316C7.60892 23.5064 6.53929 23.4201 5.60015 23.0311C3.95642 22.3502 2.65048 21.0443 1.96963 19.4005C1.69608 18.7402 1.57506 18.0261 1.51652 17.168C1.45898 16.3247 1.45898 15.2807 1.45898 13.9492L1.45898 12.7041C1.45898 10.8335 1.45897 9.36705 1.57036 8.1955C1.6839 7.00136 1.91931 6.02357 2.44752 5.16161C3.00066 4.25897 3.75958 3.50005 4.66222 2.94691C5.52418 2.4187 6.50197 2.18329 7.69611 2.06975C8.86766 1.95836 10.3341 1.95837 12.2047 1.95837ZM7.86175 3.8119C6.79571 3.91326 6.11738 4.10764 5.5766 4.43903C4.90942 4.84788 4.34849 5.40881 3.93964 6.07599C3.60825 6.61677 3.41387 7.2951 3.31251 8.36114C3.20991 9.44021 3.20898 10.8236 3.20898 12.75V13.9167C3.20898 15.2877 3.20946 16.2721 3.26246 17.0489C3.31492 17.8178 3.41592 18.3192 3.58642 18.7308C4.08966 19.9458 5.05491 20.911 6.26985 21.4143C6.87142 21.6635 7.63889 21.7566 9.10357 21.7819L9.14069 21.7825C9.60502 21.7905 10.0119 21.7975 10.3501 21.8349C10.7135 21.8752 11.0689 21.9565 11.4105 22.1551C11.7492 22.3521 11.9934 22.6153 12.2064 22.9074C12.4032 23.1774 12.6054 23.5191 12.8344 23.9061L13.4858 25.0067C13.7107 25.3866 14.2905 25.3866 14.5154 25.0067L15.1668 23.9061C15.3959 23.5191 15.5981 23.1774 15.7949 22.9074C16.0078 22.6153 16.2521 22.3521 16.5908 22.1551C16.9323 21.9565 17.2877 21.8752 17.6511 21.8349C17.9893 21.7975 18.3962 21.7905 18.8606 21.7825L18.8977 21.7819C20.3624 21.7566 21.1299 21.6635 21.7315 21.4143C22.9464 20.911 23.9116 19.9458 24.4149 18.7308C24.5854 18.3192 24.6864 17.8178 24.7388 17.0489C24.7918 16.2721 24.7923 15.2877 24.7923 13.9167V12.75C24.7923 10.8236 24.7914 9.44021 24.6888 8.36114C24.5874 7.2951 24.393 6.61677 24.0617 6.07599C23.6528 5.40881 23.0919 4.84788 22.4247 4.43903C21.8839 4.10764 21.2056 3.91326 20.1395 3.8119C19.0605 3.7093 17.6771 3.70837 15.7507 3.70837H12.2507C10.3242 3.70837 8.94082 3.7093 7.86175 3.8119ZM17.818 7.99993C19.2588 8.53868 20.1257 10.0029 20.1257 11.8339C20.1257 13.1884 19.3103 14.4503 18.4536 15.4288C17.5696 16.4383 16.4951 17.3099 15.698 17.8974C15.667 17.9202 15.6358 17.9434 15.6042 17.9669C15.1706 18.2892 14.6801 18.6537 14.0007 18.6537C13.3212 18.6537 12.8307 18.2892 12.3971 17.9669C12.3655 17.9434 12.3343 17.9202 12.3033 17.8973C11.5062 17.3099 10.4317 16.4383 9.54776 15.4288C8.69099 14.4503 7.87565 13.1884 7.87565 11.8339C7.87565 10.0029 8.74248 8.53869 10.1833 7.99994C11.4 7.54498 12.7844 7.8404 14.0006 8.78564C15.2169 7.8404 16.6013 7.54498 17.818 7.99993ZM17.2051 9.63909C16.6017 9.41347 15.6397 9.5339 14.6259 10.5694C14.4613 10.7375 14.2359 10.8322 14.0007 10.8322C13.7654 10.8322 13.54 10.7375 13.3754 10.5694C12.3616 9.5339 11.3996 9.41348 10.7962 9.63909C10.2026 9.86105 9.62565 10.5416 9.62565 11.8339C9.62565 12.5241 10.0722 13.3713 10.8644 14.276C11.6293 15.1497 12.5907 15.9352 13.3415 16.4886C13.625 16.6975 13.7683 16.8007 13.8829 16.8628C13.9592 16.9041 13.981 16.9039 13.9978 16.9038C13.9988 16.9037 13.9997 16.9037 14.0007 16.9037C14.0016 16.9037 14.0025 16.9037 14.0035 16.9038C14.0203 16.9039 14.0421 16.9041 14.1184 16.8628C14.2331 16.8007 14.3763 16.6975 14.6598 16.4886C15.4106 15.9352 16.372 15.1497 17.1369 14.276C17.9291 13.3713 18.3757 12.5241 18.3757 11.8339C18.3757 10.5416 17.7987 9.86105 17.2051 9.63909Z" fill="currentColor"></path>
  </symbol>
  <symbol fill="none" xmlns="http://www.w3.org/2000/svg" viewBox="0 0 32 32" id="ic_favorite_thin">
    <path d="M22.0581 5C18.0006 5 16.0006 9 16.0006 9C16.0006 9 14.0006 5 9.94314 5C6.64564 5 4.03439 7.75875 4.00064 11.0506C3.93189 17.8837 9.42126 22.7431 15.4381 26.8269C15.604 26.9397 15.8 27.0001 16.0006 27.0001C16.2013 27.0001 16.3973 26.9397 16.5631 26.8269C22.5794 22.7431 28.0688 17.8837 28.0006 11.0506C27.9669 7.75875 25.3556 5 22.0581 5Z" stroke="currentColor" stroke-linecap="round" stroke-linejoin="round"></path>
  </symbol>
  <symbol fill="none" xmlns="http://www.w3.org/2000/svg" viewBox="0 0 28 29" id="ic_favorite">
    <path fill-rule="evenodd" clip-rule="evenodd" d="M4.46133 14.6435C6.097 19.7325 12.5592 23.8474 14.2765 24.8659C15.9997 23.8369 22.5085 19.6765 24.0917 14.6482C25.1312 11.3979 24.1663 7.2807 20.3327 6.0452C18.4753 5.44904 16.3088 5.81187 14.8132 6.9692C14.5005 7.20954 14.0665 7.2142 13.7515 6.9762C12.1672 5.78504 10.0975 5.4362 8.211 6.0452C4.38317 7.27954 3.42183 11.3967 4.46133 14.6435ZM14.2783 26.7513C14.1336 26.7513 13.9901 26.7163 13.8594 26.6451C13.4943 26.4456 4.89243 21.7043 2.79593 15.178C2.79477 15.178 2.79477 15.1768 2.79477 15.1768C1.47877 11.0678 2.9441 5.90414 7.67493 4.3793C9.89627 3.66064 12.3171 3.9768 14.2748 5.2123C16.1718 4.01297 18.6918 3.68164 20.8688 4.3793C25.6043 5.90647 27.0743 11.069 25.7594 15.1768C23.7306 21.6285 15.0658 26.441 14.6983 26.6428C14.5676 26.7151 14.4229 26.7513 14.2783 26.7513Z" fill="currentColor"></path>
  </symbol>
  <symbol fill="none" xmlns="http://www.w3.org/2000/svg" viewBox="0 0 28 28" id="ic_filter">
    <path fill-rule="evenodd" clip-rule="evenodd" d="M11.7594 21.6917H4.4082C3.9252 21.6917 3.5332 21.2997 3.5332 20.8167C3.5332 20.3337 3.9252 19.9417 4.4082 19.9417H11.7594C12.2424 19.9417 12.6344 20.3337 12.6344 20.8167C12.6344 21.2997 12.2424 21.6917 11.7594 21.6917Z" fill="currentColor"></path>
    <path fill-rule="evenodd" clip-rule="evenodd" d="M22.3891 10.3838H15.0391C14.5561 10.3838 14.1641 9.99179 14.1641 9.50879C14.1641 9.02579 14.5561 8.63379 15.0391 8.63379H22.3891C22.8721 8.63379 23.2641 9.02579 23.2641 9.50879C23.2641 9.99179 22.8721 10.3838 22.3891 10.3838Z" fill="currentColor"></path>
    <path fill-rule="evenodd" clip-rule="evenodd" d="M7.13183 7.58325C6.09467 7.58325 5.25 8.41859 5.25 9.44642C5.25 10.4731 6.09467 11.3073 7.13183 11.3073C8.17017 11.3073 9.01367 10.4731 9.01367 9.44642C9.01367 8.41859 8.17017 7.58325 7.13183 7.58325ZM7.13183 13.0573C5.12983 13.0573 3.5 11.4379 3.5 9.44642C3.5 7.45492 5.12983 5.83325 7.13183 5.83325C9.135 5.83325 10.7637 7.45492 10.7637 9.44642C10.7637 11.4379 9.135 13.0573 7.13183 13.0573Z" fill="currentColor"></path>
    <path fill-rule="evenodd" clip-rule="evenodd" d="M20.2853 18.9092C19.247 18.9092 18.4023 19.7445 18.4023 20.7712C18.4023 21.799 19.247 22.6332 20.2853 22.6332C21.3225 22.6332 22.166 21.799 22.166 20.7712C22.166 19.7445 21.3225 18.9092 20.2853 18.9092ZM20.2853 24.3832C18.2822 24.3832 16.6523 22.7627 16.6523 20.7712C16.6523 18.7797 18.2822 17.1592 20.2853 17.1592C22.2873 17.1592 23.916 18.7797 23.916 20.7712C23.916 22.7627 22.2873 24.3832 20.2853 24.3832Z" fill="currentColor"></path>
  </symbol>
  <symbol fill="none" xmlns="http://www.w3.org/2000/svg" viewBox="0 0 25 25" id="ic_lock">
    <path d="M2.5 16.5C2.5 13.672 2.5 12.257 3.379 11.379C4.257 10.5 5.672 10.5 8.5 10.5H16.5C19.328 10.5 20.743 10.5 21.621 11.379C22.5 12.257 22.5 13.672 22.5 16.5C22.5 19.328 22.5 20.743 21.621 21.621C20.743 22.5 19.328 22.5 16.5 22.5H8.5C5.672 22.5 4.257 22.5 3.379 21.621C2.5 20.743 2.5 19.328 2.5 16.5Z" stroke="currentColor" stroke-width="1.5"></path>
    <path d="M6.5 10.5V8.5C6.5 6.9087 7.13214 5.38258 8.25736 4.25736C9.38258 3.13214 10.9087 2.5 12.5 2.5C14.0913 2.5 15.6174 3.13214 16.7426 4.25736C17.8679 5.38258 18.5 6.9087 18.5 8.5V10.5" stroke="currentColor" stroke-width="1.5" stroke-linecap="round"></path>
  </symbol>
  <symbol fill="none" xmlns="http://www.w3.org/2000/svg" viewBox="0 0 28 29" id="ic_logout">
    <path d="M17.4369 1.95825C15.8414 1.95823 14.5553 1.95821 13.5439 2.0942C12.4937 2.23538 11.6095 2.53743 10.9073 3.23966C10.2949 3.85208 9.98545 4.60467 9.82301 5.489C9.66516 6.34832 9.63497 7.39993 9.62794 8.66172C9.62525 9.14496 10.0148 9.53888 10.4981 9.54157C10.9813 9.54426 11.3752 9.1547 11.3779 8.67146C11.385 7.39571 11.4181 6.49145 11.5442 5.80516C11.6657 5.14388 11.8607 4.76113 12.1447 4.4771C12.4676 4.15421 12.921 3.94369 13.777 3.82859C14.6583 3.71011 15.8263 3.70825 17.5009 3.70825H18.6676C20.3422 3.70825 21.5102 3.71011 22.3914 3.82859C23.2475 3.94369 23.7008 4.15421 24.0237 4.4771C24.3466 4.79999 24.5571 5.25332 24.6722 6.10939C24.7907 6.99064 24.7926 8.1586 24.7926 9.83325V19.1666C24.7926 20.8412 24.7907 22.0092 24.6722 22.8904C24.5571 23.7465 24.3466 24.1999 24.0237 24.5227C23.7008 24.8456 23.2475 25.0562 22.3914 25.1712C21.5102 25.2897 20.3422 25.2916 18.6676 25.2916H17.5009C15.8263 25.2916 14.6583 25.2897 13.777 25.1712C12.921 25.0562 12.4676 24.8456 12.1447 24.5227C11.8607 24.2387 11.6657 23.856 11.5442 23.1947C11.4181 22.5084 11.385 21.6041 11.3779 20.3284C11.3752 19.8451 10.9813 19.4556 10.4981 19.4583C10.0148 19.461 9.62525 19.8549 9.62794 20.3381C9.63497 21.5999 9.66516 22.6515 9.82301 23.5108C9.98545 24.3952 10.2949 25.1478 10.9073 25.7602C11.6095 26.4624 12.4937 26.7645 13.5439 26.9056C14.5553 27.0416 15.8414 27.0416 17.4369 27.0416H18.7316C20.3271 27.0416 21.6131 27.0416 22.6246 26.9056C23.6747 26.7645 24.5589 26.4624 25.2612 25.7602C25.9634 25.0579 26.2654 24.1738 26.4066 23.1236C26.5426 22.1122 26.5426 20.8261 26.5426 19.2306V9.76924C26.5426 8.17372 26.5426 6.88767 26.4066 5.87621C26.2654 4.82608 25.9634 3.9419 25.2612 3.23966C24.5589 2.53743 23.6747 2.23538 22.6246 2.0942C21.6132 1.95821 20.3271 1.95823 18.7316 1.95825H17.4369Z" fill="currentColor"></path>
    <path d="M17.5007 13.6249C17.9839 13.6249 18.3757 14.0167 18.3757 14.4999C18.3757 14.9832 17.9839 15.3749 17.5007 15.3749H4.69933L6.98676 17.3356C7.35367 17.6501 7.39616 18.2025 7.08167 18.5694C6.76717 18.9363 6.21479 18.9788 5.84788 18.6643L1.76454 15.1643C1.5706 14.998 1.45898 14.7554 1.45898 14.4999C1.45898 14.2445 1.5706 14.0018 1.76454 13.8356L5.84788 10.3356C6.21478 10.0211 6.76717 10.0636 7.08167 10.4305C7.39616 10.7974 7.35367 11.3498 6.98676 11.6643L4.69933 13.6249H17.5007Z" fill="currentColor"></path>
  </symbol>
  <symbol fill="none" xmlns="http://www.w3.org/2000/svg" viewBox="0 0 28 29" id="ic_messages">
    <path fill-rule="evenodd" clip-rule="evenodd" d="M11.6015 4.29175H16.3998C18.5439 4.29173 20.2421 4.29172 21.5712 4.47041C22.939 4.65431 24.0461 5.04178 24.9192 5.91487C25.7923 6.78796 26.1798 7.89506 26.3637 9.26289C26.5424 10.592 26.5423 12.2902 26.5423 14.4343V14.5659C26.5423 16.71 26.5424 18.4082 26.3637 19.7373C26.1798 21.1051 25.7923 22.2122 24.9192 23.0853C24.0461 23.9584 22.939 24.3459 21.5712 24.5298C20.2421 24.7085 18.5439 24.7084 16.3998 24.7084H11.6015C9.45745 24.7084 7.75921 24.7085 6.43012 24.5298C5.0623 24.3459 3.95519 23.9584 3.0821 23.0853C2.20901 22.2122 1.82154 21.1051 1.63764 19.7373C1.45895 18.4082 1.45897 16.71 1.45898 14.5659V14.4343C1.45897 12.2902 1.45895 10.592 1.63764 9.26289C1.82154 7.89506 2.20901 6.78796 3.0821 5.91487C3.95519 5.04178 5.0623 4.65431 6.43012 4.47041C7.75921 4.29172 9.45745 4.29173 11.6015 4.29175ZM6.66331 6.2048C5.48954 6.36261 4.81328 6.65856 4.31954 7.1523C3.82579 7.64605 3.52985 8.3223 3.37204 9.49607C3.21084 10.695 3.20899 12.2755 3.20899 14.5001C3.20899 16.7247 3.21084 18.3052 3.37204 19.5041C3.52985 20.6779 3.82579 21.3541 4.31954 21.8479C4.81328 22.3416 5.48954 22.6376 6.66331 22.7954C7.86225 22.9566 9.44269 22.9584 11.6673 22.9584H16.334C18.5586 22.9584 20.1391 22.9566 21.338 22.7954C22.5118 22.6376 23.188 22.3416 23.6818 21.8479C24.1755 21.3541 24.4715 20.6779 24.6293 19.5041C24.7905 18.3052 24.7923 16.7247 24.7923 14.5001C24.7923 12.2755 24.7905 10.695 24.6293 9.49607C24.4715 8.3223 24.1755 7.64605 23.6818 7.1523C23.188 6.65856 22.5118 6.36261 21.338 6.2048C20.1391 6.04361 18.5586 6.04175 16.334 6.04175H11.6673C9.44269 6.04175 7.86225 6.04361 6.66331 6.2048ZM6.32846 9.27325C6.63783 8.90201 7.18957 8.85185 7.56081 9.16122L10.0795 11.2601C11.168 12.1672 11.9237 12.7949 12.5617 13.2052C13.1793 13.6024 13.5981 13.7358 14.0007 13.7358C14.4032 13.7358 14.8221 13.6024 15.4396 13.2052C16.0776 12.7949 16.8333 12.1672 17.9218 11.2601L20.4405 9.16122C20.8117 8.85185 21.3635 8.90201 21.6728 9.27325C21.9822 9.6445 21.9321 10.1962 21.5608 10.5056L18.9982 12.6411C17.9642 13.5029 17.126 14.2013 16.3863 14.6771C15.6157 15.1727 14.8652 15.4858 14.0007 15.4858C13.1361 15.4858 12.3856 15.1727 11.615 14.6771C10.8753 14.2013 10.0372 13.5029 9.00307 12.6411L6.44049 10.5056C6.06925 10.1962 6.01909 9.6445 6.32846 9.27325Z" fill="currentColor"></path>
  </symbol>
  <symbol fill="none" xmlns="http://www.w3.org/2000/svg" viewBox="0 0 28 29" id="ic_messages_a">
    <path fill-rule="evenodd" clip-rule="evenodd" d="M3.70277 6.53358C2.33594 7.90042 2.33594 10.1003 2.33594 14.5001C2.33594 18.8999 2.33594 21.0997 3.70277 22.4666C5.06961 23.8334 7.2695 23.8334 11.6693 23.8334H16.3359C20.7357 23.8334 22.9356 23.8334 24.3024 22.4666C25.6693 21.0997 25.6693 18.8999 25.6693 14.5001C25.6693 10.1003 25.6693 7.90042 24.3024 6.53358C22.9356 5.16675 20.7357 5.16675 16.3359 5.16675H11.6693C7.2695 5.16675 5.06961 5.16675 3.70277 6.53358ZM21.6748 9.27325C21.9842 9.6445 21.934 10.1962 21.5628 10.5056L19.0002 12.6411C17.9661 13.5028 17.128 14.2013 16.3882 14.6771C15.6177 15.1727 14.8672 15.4858 14.0026 15.4858C13.138 15.4858 12.3876 15.1727 11.617 14.6771C10.8772 14.2013 10.0391 13.5029 9.00502 12.6411L6.44244 10.5056C6.0712 10.1962 6.02104 9.6445 6.33041 9.27325C6.63978 8.90201 7.19152 8.85185 7.56277 9.16122L10.0815 11.2601C11.1699 12.1672 11.9256 12.7949 12.5636 13.2052C13.1812 13.6024 13.6 13.7358 14.0026 13.7358C14.4052 13.7358 14.824 13.6024 15.4416 13.2052C16.0796 12.7949 16.8353 12.1672 17.9237 11.2601L20.4424 9.16122C20.8137 8.85185 21.3654 8.90201 21.6748 9.27325Z" fill="currentColor"></path>
  </symbol>
  <symbol fill="none" xmlns="http://www.w3.org/2000/svg" viewBox="0 0 24 29" id="ic_metro">
    <path fill-rule="evenodd" clip-rule="evenodd" d="M24 12.006C24 5.3795 18.6377 0 12 0C5.37681 0 0 5.3795 0 12.006C0 15.3265 1.34783 18.328 3.52174 20.4885C3.69565 20.6625 3.94203 20.7785 4.2029 20.7785C4.73913 20.7785 5.17391 20.3435 5.17391 19.807C5.17391 19.5315 5.07246 19.285 4.88406 19.0965C3.07246 17.284 1.95652 14.761 1.95652 12.006C1.95652 6.467 6.44927 1.943 11.9855 1.943C17.5217 1.943 22.0435 6.4525 22.0435 12.006C22.0435 14.79 20.9275 17.2985 19.1014 19.1255L10.6232 27.608L12 29L20.5072 20.4885C22.6667 18.328 24 15.3265 24 12.006Z" fill="currentColor"></path>
    <path fill-rule="evenodd" clip-rule="evenodd" d="M17.5654 14.326L14.5654 6.75696L12.0436 11.1795L9.50742 6.75696L6.52191 14.326H5.65234V15.457H10.1596V14.326H9.49292L10.1451 12.441L12.0436 15.544L13.9422 12.441L14.5944 14.326H13.9132V15.457H18.4494V14.326H17.5654Z" fill="currentColor"></path>
  </symbol>
  <symbol fill="none" xmlns="http://www.w3.org/2000/svg" viewBox="0 0 32 32" id="ic_notice">
    <path d="M16 28C22.6274 28 28 22.6274 28 16C28 9.37258 22.6274 4 16 4C9.37258 4 4 9.37258 4 16C4 22.6274 9.37258 28 16 28Z" stroke="currentColor" stroke-linecap="round" stroke-linejoin="round"></path>
    <path d="M16 21.3334H16.0121V21.3455H16V21.3334Z" stroke="currentColor" stroke-width="1.5" stroke-linejoin="round"></path>
    <path d="M16 16V10.6666" stroke="currentColor" stroke-linecap="round" stroke-linejoin="round"></path>
  </symbol>
  <symbol fill="none" xmlns="http://www.w3.org/2000/svg" viewBox="0 0 28 28" id="ic_notification">
    <path fill-rule="evenodd" clip-rule="evenodd" d="M14.0002 1.45837C9.00663 1.45837 4.95854 5.50647 4.95854 10.5V11.3215C4.95854 12.1346 4.71787 12.9295 4.26686 13.606L2.92682 15.616C1.37154 17.9489 2.55887 21.12 5.26389 21.8577C6.14544 22.0981 7.03443 22.3015 7.92857 22.4678L7.93079 22.4738C8.82795 24.8676 11.2258 26.5417 14.0001 26.5417C16.7745 26.5417 19.1723 24.8676 20.0695 22.4738L20.0717 22.4678C20.9659 22.3015 21.8549 22.0981 22.7365 21.8577C25.4416 21.12 26.6289 17.9489 25.0736 15.616L23.7336 13.606C23.2825 12.9295 23.0419 12.1346 23.0419 11.3215V10.5C23.0419 5.50647 18.9938 1.45837 14.0002 1.45837ZM17.9394 22.7932C15.3226 23.1058 12.6777 23.1058 10.0609 22.7931C10.8903 23.9849 12.333 24.7917 14.0001 24.7917C15.6672 24.7917 17.1099 23.9849 17.9394 22.7932ZM6.70854 10.5C6.70854 6.47296 9.97313 3.20837 14.0002 3.20837C18.0273 3.20837 21.2919 6.47296 21.2919 10.5V11.3215C21.2919 12.4801 21.6348 13.6127 22.2775 14.5767L23.6175 16.5868C24.5102 17.9258 23.8287 19.7459 22.2761 20.1694C16.8578 21.6471 11.1426 21.6471 5.72435 20.1694C4.17171 19.7459 3.49021 17.9258 4.38291 16.5868L5.72295 14.5767C6.36561 13.6127 6.70854 12.4801 6.70854 11.3215V10.5Z" fill="currentColor"></path>
  </symbol>
  <symbol fill="none" xmlns="http://www.w3.org/2000/svg" viewBox="0 0 28 28" id="ic_remove">
    <path d="M11.5248 4.95818C11.8856 3.93745 12.8591 3.20825 14.0007 3.20825C15.1423 3.20825 16.1158 3.93745 16.4765 4.95818C16.6376 5.4138 17.1375 5.65261 17.5931 5.49157C18.0487 5.33053 18.2876 4.83062 18.1265 4.37499C17.5263 2.67694 15.907 1.45825 14.0007 1.45825C12.0944 1.45825 10.475 2.67694 9.87486 4.37499C9.71382 4.83062 9.95263 5.33053 10.4083 5.49157C10.8639 5.65261 11.3638 5.4138 11.5248 4.95818Z" fill="currentColor"></path>
    <path d="M3.20898 6.99992C3.20898 6.51667 3.60074 6.12492 4.08398 6.12492H23.9174C24.4007 6.12492 24.7924 6.51667 24.7924 6.99992C24.7924 7.48317 24.4007 7.87492 23.9174 7.87492H4.08398C3.60074 7.87492 3.20898 7.48317 3.20898 6.99992Z" fill="currentColor"></path>
    <path d="M5.97032 9.04352C6.4525 9.01137 6.86944 9.3762 6.90158 9.85838L7.43818 17.9073C7.54301 19.4798 7.61771 20.574 7.78171 21.3972C7.94078 22.1957 8.16284 22.6184 8.48182 22.9168C8.8008 23.2152 9.23732 23.4087 10.0447 23.5143C10.877 23.6232 11.9736 23.6249 13.5496 23.6249H14.4519C16.0279 23.6249 17.1245 23.6232 17.9568 23.5143C18.7642 23.4087 19.2007 23.2152 19.5197 22.9168C19.8386 22.6184 20.0607 22.1957 20.2198 21.3972C20.3838 20.574 20.4585 19.4798 20.5633 17.9073L21.0999 9.85838C21.132 9.3762 21.549 9.01137 22.0312 9.04352C22.5133 9.07567 22.8782 9.49261 22.846 9.97479L22.3053 18.0852C22.2056 19.5817 22.125 20.7905 21.9361 21.7391C21.7396 22.7253 21.4054 23.549 20.7152 24.1947C20.025 24.8405 19.1809 25.1191 18.1838 25.2495C17.2248 25.375 16.0132 25.3749 14.5134 25.3749H13.4881C11.9882 25.3749 10.7767 25.375 9.81767 25.2495C8.82058 25.1191 7.97644 24.8405 7.28625 24.1947C6.59605 23.549 6.2619 22.7253 6.06543 21.7391C5.87646 20.7905 5.79589 19.5817 5.69615 18.0851L5.15546 9.97479C5.12331 9.49261 5.48814 9.07567 5.97032 9.04352Z" fill="currentColor"></path>
  </symbol>
  <symbol fill="none" xmlns="http://www.w3.org/2000/svg" viewBox="0 0 28 29" id="ic_search">
    <path fill-rule="evenodd" clip-rule="evenodd" d="M13.6962 4.58325C8.39598 4.58325 4.08398 8.89408 4.08398 14.1943C4.08398 19.4944 8.39598 23.8064 13.6962 23.8064C18.9952 23.8064 23.3071 19.4944 23.3071 14.1943C23.3071 8.89408 18.9952 4.58325 13.6962 4.58325ZM13.6962 25.5564C7.43115 25.5564 2.33398 20.4593 2.33398 14.1943C2.33398 7.92925 7.43115 2.83325 13.6962 2.83325C19.9612 2.83325 25.0571 7.92925 25.0571 14.1943C25.0571 20.4593 19.9612 25.5564 13.6962 25.5564Z" fill="currentColor"></path>
    <path fill-rule="evenodd" clip-rule="evenodd" d="M25.0999 27.0085C24.8771 27.0085 24.6531 26.9233 24.4816 26.753L20.3702 22.6533C20.0284 22.3115 20.0272 21.7573 20.3691 21.4155C20.7097 21.0713 21.2639 21.0737 21.6069 21.4132L25.7182 25.514C26.0601 25.8558 26.0612 26.4088 25.7194 26.7507C25.5491 26.9233 25.3239 27.0085 25.0999 27.0085Z" fill="currentColor"></path>
  </symbol>
  <symbol fill="none" xmlns="http://www.w3.org/2000/svg" viewBox="0 0 28 28" id="ic_sort">
    <path d="M19.6465 6.76245C20.0895 6.76245 20.4556 7.09163 20.5135 7.51872L20.5215 7.63745V23.5249C20.5215 24.0081 20.1297 24.3999 19.6465 24.3999C19.2035 24.3999 18.8374 24.0707 18.7795 23.6436L18.7715 23.5249V7.63745C18.7715 7.1542 19.1632 6.76245 19.6465 6.76245Z" fill="currentColor"></path>
    <path d="M23.7833 18.1288C24.1243 17.7863 24.6783 17.785 25.0208 18.1259C25.3321 18.4359 25.3615 18.9219 25.1081 19.265L25.0236 19.3634L20.2662 24.1428C19.9553 24.4552 19.4673 24.4836 19.1242 24.228L19.0259 24.1428L14.2685 19.3634C13.9276 19.0209 13.9289 18.4669 14.2714 18.1259C14.5827 17.816 15.0689 17.7889 15.4109 18.0439L15.5088 18.1288L19.6456 22.2845L23.7833 18.1288Z" fill="currentColor"></path>
    <path d="M8.06445 3.59668C8.50743 3.59668 8.87353 3.92586 8.93147 4.35295L8.93945 4.47168V20.3591C8.93945 20.8423 8.5477 21.2341 8.06445 21.2341C7.62147 21.2341 7.25538 20.9049 7.19744 20.4778L7.18945 20.3591V4.47168C7.18945 3.98843 7.5812 3.59668 8.06445 3.59668Z" fill="currentColor"></path>
    <path d="M7.4439 3.85366C7.75484 3.54128 8.2428 3.51288 8.58592 3.76847L8.68419 3.85366L13.4416 8.6331C13.7825 8.9756 13.7812 9.52962 13.4387 9.87054C13.1274 10.1805 12.6412 10.2076 12.2993 9.95263L12.2013 9.86768L8.06379 5.71073L3.92679 9.86768C3.61686 10.179 3.13082 10.2084 2.78769 9.95503L2.68935 9.87054C2.37799 9.56061 2.34863 9.07457 2.602 8.73144L2.68649 8.6331L7.4439 3.85366Z" fill="currentColor"></path>
  </symbol>
  <symbol fill="none" xmlns="http://www.w3.org/2000/svg" viewBox="0 0 28 28" id="ic_stats">
    <path d="M3.20898 2.33325C3.20898 1.85 2.81723 1.45825 2.33398 1.45825C1.85074 1.45825 1.45898 1.85 1.45898 2.33325V14.0669C1.45897 16.76 1.45896 18.8705 1.68036 20.5173C1.90697 22.2028 2.37987 23.5328 3.42381 24.5768C4.46776 25.6207 5.79778 26.0936 7.48331 26.3202C9.13004 26.5416 11.2406 26.5416 13.9337 26.5416H25.6673C26.1506 26.5416 26.5423 26.1498 26.5423 25.6666C26.5423 25.1833 26.1506 24.7916 25.6673 24.7916H14.0007C11.2261 24.7916 9.23313 24.7897 7.71649 24.5858C6.22502 24.3853 5.32585 24.0039 4.66125 23.3393C3.99665 22.6747 3.61527 21.7755 3.41475 20.2841C3.21084 18.7674 3.20898 16.7745 3.20898 13.9999V2.33325Z" fill="currentColor"></path>
    <path d="M22.8527 8.71073C23.1533 8.33229 23.0901 7.78189 22.7117 7.48136C22.3332 7.18084 21.7828 7.244 21.4823 7.62244L17.8446 12.2032C17.5585 12.5635 17.3708 12.7991 17.2161 12.9689C17.0649 13.1349 16.9939 13.182 16.9616 13.1992C16.7157 13.3307 16.4219 13.3371 16.1705 13.2165C16.1375 13.2006 16.0645 13.1567 15.9062 12.9974C15.7444 12.8345 15.5466 12.6073 15.2451 12.2598L15.2262 12.2381C14.9487 11.9182 14.712 11.6454 14.5033 11.4354C14.2862 11.2171 14.0489 11.0134 13.755 10.8723C13.0008 10.5104 12.1194 10.5296 11.3817 10.9239C11.0942 11.0776 10.8659 11.2914 10.6586 11.519C10.4591 11.7379 10.2346 12.0207 9.9712 12.3524L6.31544 16.9558C6.01491 17.3342 6.07806 17.8846 6.45649 18.1851C6.83492 18.4857 7.38533 18.4225 7.68586 18.0441L11.3237 13.4632C11.6099 13.1029 11.7976 12.8673 11.9522 12.6976C12.1034 12.5316 12.1744 12.4845 12.2067 12.4672C12.4526 12.3358 12.7464 12.3294 12.9978 12.45C13.0308 12.4659 13.1038 12.5098 13.2621 12.6691C13.424 12.8319 13.6217 13.0591 13.9233 13.4067L13.9421 13.4284C14.2196 13.7483 14.4563 14.021 14.6651 14.2311C14.8821 14.4494 15.1194 14.6531 15.4134 14.7942C16.1675 15.1561 17.049 15.1369 17.7867 14.7425C18.0742 14.5888 18.3025 14.375 18.5098 14.1474C18.7092 13.9285 18.9338 13.6457 19.1971 13.3141L22.8527 8.71073Z" fill="currentColor"></path>
  </symbol>
  <symbol fill="none" xmlns="http://www.w3.org/2000/svg" viewBox="0 0 28 28" id="ic_tariffs">
    <path d="M22.1673 14.0001C22.1673 14.6444 21.645 15.1667 21.0007 15.1667C20.3563 15.1667 19.834 14.6444 19.834 14.0001C19.834 13.3558 20.3563 12.8334 21.0007 12.8334C21.645 12.8334 22.1673 13.3558 22.1673 14.0001Z" fill="currentColor"></path>
    <path fill-rule="evenodd" clip-rule="evenodd" d="M11.6015 3.79175H15.2331C17.3772 3.79173 19.0754 3.79172 20.4045 3.97041C21.7723 4.15431 22.8794 4.54177 23.7525 5.41486C24.831 6.49332 25.1747 7.93765 25.2994 9.81184C25.9729 10.1082 26.4814 10.7349 26.5375 11.5288C26.5424 11.5991 26.5424 11.6748 26.5423 11.7449C26.5423 11.7513 26.5423 11.7577 26.5423 11.764V16.2362C26.5423 16.2425 26.5423 16.2488 26.5423 16.2552C26.5424 16.3254 26.5424 16.4011 26.5375 16.4713C26.4814 17.2652 25.9729 17.892 25.2994 18.1883C25.1747 20.0625 24.831 21.5068 23.7525 22.5853C22.8794 23.4584 21.7723 23.8459 20.4045 24.0298C19.0754 24.2084 17.3772 24.2084 15.2331 24.2084H11.6015C9.45745 24.2084 7.75921 24.2084 6.43012 24.0298C5.0623 23.8459 3.95519 23.4584 3.0821 22.5853C2.20901 21.7122 1.82154 20.6051 1.63764 19.2373C1.45895 17.9082 1.45897 16.21 1.45898 14.0659V13.9343C1.45897 11.7902 1.45895 10.092 1.63764 8.76289C1.82154 7.39506 2.20901 6.28796 3.0821 5.41487C3.95519 4.54178 5.0623 4.15431 6.43012 3.97041C7.75921 3.79172 9.45745 3.79173 11.6015 3.79175ZM23.5299 18.3751H21.2699C18.7671 18.3751 16.6257 16.4763 16.6257 14.0001C16.6257 11.5239 18.7671 9.62508 21.2699 9.62508H23.5299C23.3971 8.06005 23.0967 7.23392 22.5151 6.6523C22.0214 6.15856 21.3451 5.86261 20.1713 5.7048C18.9724 5.54361 17.3919 5.54175 15.1673 5.54175H11.6673C9.44269 5.54175 7.86225 5.54361 6.66331 5.7048C5.48954 5.86261 4.81328 6.15856 4.31954 6.6523C3.82579 7.14605 3.52985 7.8223 3.37204 8.99607C3.21084 10.195 3.20899 11.7755 3.20899 14.0001C3.20899 16.2247 3.21084 17.8052 3.37204 19.0041C3.52985 20.1779 3.82579 20.8541 4.31954 21.3479C4.81328 21.8416 5.48954 22.1376 6.66331 22.2954C7.86225 22.4566 9.44269 22.4584 11.6673 22.4584H15.1673C17.3919 22.4584 18.9724 22.4566 20.1713 22.2954C21.3451 22.1376 22.0214 21.8416 22.5151 21.3479C23.0967 20.7662 23.3971 19.9401 23.5299 18.3751ZM6.12565 9.33342C6.12565 8.85017 6.5174 8.45842 7.00065 8.45842H11.6673C12.1506 8.45842 12.5423 8.85017 12.5423 9.33342C12.5423 9.81666 12.1506 10.2084 11.6673 10.2084H7.00065C6.5174 10.2084 6.12565 9.81666 6.12565 9.33342ZM24.4114 11.3753C24.3877 11.3751 24.3567 11.3751 24.3062 11.3751H21.2699C19.6092 11.3751 18.3757 12.6103 18.3757 14.0001C18.3757 15.3899 19.6092 16.6251 21.2699 16.6251H24.3062C24.3567 16.6251 24.3877 16.6251 24.4114 16.6248C24.426 16.6247 24.4337 16.6244 24.4373 16.6243L24.4399 16.6242C24.6804 16.6096 24.7839 16.4472 24.7917 16.3496C24.7917 16.3496 24.7919 16.3423 24.792 16.3318C24.7923 16.3111 24.7923 16.2835 24.7923 16.2362V11.764C24.7923 11.7167 24.7923 11.6891 24.792 11.6684C24.7919 11.6579 24.7917 11.6505 24.7917 11.6505C24.7838 11.5529 24.6804 11.3906 24.4399 11.376C24.4399 11.376 24.4342 11.3756 24.4114 11.3753Z" fill="currentColor"></path>
  </symbol>
  <symbol fill="none" xmlns="http://www.w3.org/2000/svg" viewBox="0 0 28 28" id="ic_tariffs_a">
    <path fill-rule="evenodd" clip-rule="evenodd" d="M24.6203 9.33746C24.5542 9.33328 24.4822 9.33331 24.4076 9.33334L24.389 9.33334H21.4624C19.0501 9.33334 16.986 11.2322 16.986 13.7083C16.986 16.1845 19.0501 18.0833 21.4624 18.0833H24.389L24.4076 18.0833C24.4822 18.0834 24.5542 18.0834 24.6203 18.0792C25.6002 18.0174 26.4667 17.2506 26.5396 16.1796C26.5443 16.1094 26.5443 16.0337 26.5443 15.9635L26.5443 15.9445V11.4722L26.5443 11.4532C26.5443 11.383 26.5443 11.3073 26.5396 11.2371C26.4667 10.1661 25.6002 9.39933 24.6203 9.33746ZM21.2029 14.875C21.8239 14.875 22.3274 14.3527 22.3274 13.7083C22.3274 13.064 21.8239 12.5417 21.2029 12.5417C20.5819 12.5417 20.0784 13.064 20.0784 13.7083C20.0784 14.3527 20.5819 14.875 21.2029 14.875Z" fill="currentColor"></path>
    <path fill-rule="evenodd" clip-rule="evenodd" d="M24.4069 19.8333C24.5808 19.8288 24.7124 19.99 24.6652 20.1574C24.431 20.9886 24.0593 21.6971 23.4628 22.2935C22.5897 23.1666 21.4826 23.5541 20.1148 23.738C18.7857 23.9167 17.0875 23.9167 14.9434 23.9167H12.4785C10.3344 23.9167 8.63616 23.9167 7.30708 23.738C5.93925 23.5541 4.83215 23.1666 3.95906 22.2935C3.08596 21.4205 2.69849 20.3134 2.5146 18.9455C2.3359 17.6164 2.33592 15.9182 2.33594 13.7742V13.6425C2.33592 11.4985 2.3359 9.80022 2.5146 8.47114C2.69849 7.10332 3.08596 5.99621 3.95905 5.12312C4.83214 4.25003 5.93925 3.86256 7.30708 3.67866C8.63616 3.49997 10.3344 3.49998 12.4784 3.5L14.9434 3.5C17.0875 3.49998 18.7857 3.49997 20.1148 3.67866C21.4826 3.86256 22.5897 4.25003 23.4628 5.12312C24.0593 5.71961 24.431 6.42803 24.6652 7.25921C24.7124 7.42671 24.5808 7.58785 24.4068 7.58334L21.4623 7.58334C18.1529 7.58334 15.2359 10.1977 15.2359 13.7083C15.2359 17.219 18.1529 19.8333 21.4623 19.8333L24.4069 19.8333ZM6.71094 8.16667C6.22769 8.16667 5.83594 8.55842 5.83594 9.04167C5.83594 9.52492 6.22769 9.91667 6.71094 9.91667H11.3776C11.8609 9.91667 12.2526 9.52492 12.2526 9.04167C12.2526 8.55842 11.8609 8.16667 11.3776 8.16667H6.71094Z" fill="currentColor"></path>
  </symbol>
  <symbol fill="none" xmlns="http://www.w3.org/2000/svg" viewBox="0 0 24 24" id="ic_tg2">
    <path d="M20.7097 3.6545C20.7097 3.6545 22.6523 2.897 22.4904 4.73664C22.4365 5.49415 21.9508 8.1454 21.573 11.0131L20.278 19.5079C20.278 19.5079 20.17 20.7524 19.1987 20.9688C18.2274 21.1852 16.7704 20.2113 16.5005 19.9949C16.2847 19.8326 12.4534 17.3977 11.1043 16.2074C10.7265 15.8827 10.2948 15.2334 11.1582 14.476L16.8244 9.06525C17.4719 8.41595 18.1194 6.90095 15.4213 8.7406L7.86655 13.8808C7.86655 13.8808 7.00315 14.4219 5.3843 13.9349L1.87671 12.8527C1.87671 12.8527 0.581605 12.0412 2.79408 11.2295C8.19035 8.68645 14.8278 6.0893 20.7097 3.6545Z" fill="currentColor"></path>
  </symbol>
  <symbol fill="none" xmlns="http://www.w3.org/2000/svg" viewBox="0 0 24 25" id="ic_time">
    <path d="M12 21.5C16.9706 21.5 21 17.4706 21 12.5C21 7.52944 16.9706 3.5 12 3.5C7.02944 3.5 3 7.52944 3 12.5C3 17.4706 7.02944 21.5 12 21.5Z" stroke="currentColor" stroke-linecap="round" stroke-linejoin="round"></path>
    <path d="M11 8.5V13.5H16" stroke="currentColor" stroke-linecap="round" stroke-linejoin="round"></path>
  </symbol>
  <symbol fill="none" xmlns="http://www.w3.org/2000/svg" viewBox="0 0 28 29" id="ic_user">
    <path fill-rule="evenodd" clip-rule="evenodd" d="M13.8699 15.2218H13.9072C17.3232 15.2218 20.101 12.444 20.101 9.02801C20.101 5.61201 17.3232 2.83301 13.9072 2.83301C10.49 2.83301 7.71104 5.61201 7.71104 9.02451C7.69937 12.4312 10.4609 15.2113 13.8699 15.2218ZM9.37704 9.02801C9.37704 6.53017 11.4094 4.49901 13.9072 4.49901C16.4039 4.49901 18.435 6.53017 18.435 9.02801C18.435 11.5247 16.4039 13.557 13.9072 13.557H13.8734C11.386 13.5477 9.36887 11.5177 9.37704 9.02801Z" fill="currentColor"></path>
    <path fill-rule="evenodd" clip-rule="evenodd" d="M4.66602 21.7019C4.66602 26.0151 11.6217 26.0151 13.9072 26.0151C17.8727 26.0151 23.146 25.5706 23.146 21.7252C23.146 17.4121 16.1927 17.4121 13.9072 17.4121C9.94052 17.4121 4.66602 17.8566 4.66602 21.7019ZM6.41602 21.7019C6.41602 20.0161 8.93602 19.1621 13.9072 19.1621C18.8772 19.1621 21.396 20.0242 21.396 21.7252C21.396 23.4111 18.8772 24.2651 13.9072 24.2651C8.93602 24.2651 6.41602 23.4029 6.41602 21.7019Z" fill="currentColor"></path>
  </symbol>
  <symbol fill="none" xmlns="http://www.w3.org/2000/svg" viewBox="0 0 79 79" id="ic_warning">
    <path d="M39.5026 23.8646C40.866 23.8646 41.9713 24.9699 41.9713 26.3333V42.7917C41.9713 44.1551 40.866 45.2604 39.5026 45.2604C38.1391 45.2604 37.0338 44.1551 37.0338 42.7917V26.3333C37.0338 24.9699 38.1391 23.8646 39.5026 23.8646Z" fill="currentColor"></path>
    <path d="M39.5026 55.9583C41.3205 55.9583 42.7942 54.4846 42.7942 52.6667C42.7942 50.8487 41.3205 49.375 39.5026 49.375C37.6846 49.375 36.2109 50.8487 36.2109 52.6667C36.2109 54.4846 37.6846 55.9583 39.5026 55.9583Z" fill="currentColor"></path>
    <path fill-rule="evenodd" clip-rule="evenodd" d="M27.305 14.7349C30.8334 10.2533 34.5711 7.40625 39.5025 7.40625C44.434 7.40625 48.1717 10.2533 51.7 14.7349C55.1701 19.1425 58.8475 25.6626 63.5524 34.0047L64.9859 36.5463C68.8754 43.4422 71.9473 48.8887 73.5609 53.2604C75.2099 57.728 75.6016 61.7843 73.1071 65.3624C70.6865 68.8345 66.6478 70.2553 61.5539 70.9258C56.4796 71.5938 49.6557 71.5938 40.901 71.5938H38.1042C29.3495 71.5938 22.5255 71.5938 17.4511 70.9258C12.3572 70.2553 8.31856 68.8345 5.89794 65.3624C3.40349 61.7843 3.79521 57.728 5.44417 53.2604C7.05776 48.8888 10.1297 43.4423 14.0191 36.5464L15.4524 34.0051C20.1575 25.6628 23.8349 19.1426 27.305 14.7349ZM31.1845 17.7892C27.9783 21.8615 24.4829 28.0446 19.6372 36.636L18.4402 38.7584C14.4039 45.9149 11.5355 51.0164 10.0762 54.9701C8.63566 58.873 8.83539 60.9423 9.94831 62.5387C11.1351 64.241 13.3626 65.4075 18.0955 66.0306C22.8092 66.6511 29.307 66.6562 38.3055 66.6562H40.6996C49.698 66.6562 56.1959 66.6511 60.9095 66.0306C65.6425 65.4075 67.87 64.241 69.0568 62.5387C70.1697 60.9423 70.3694 58.873 68.9288 54.9701C67.4695 51.0164 64.6012 45.9149 60.5649 38.7584L59.3678 36.636C54.5222 28.0446 51.0267 21.8615 47.8206 17.7892C44.6443 13.7547 42.1773 12.3438 39.5025 12.3438C36.8278 12.3438 34.3608 13.7547 31.1845 17.7892Z" fill="currentColor"></path>
  </symbol>
  <symbol fill="none" xmlns="http://www.w3.org/2000/svg" viewBox="0 0 46 46" id="ic_tg">
    <path d="M42 3L3.68213 20.7533C2.69469 21.2102 2.20221 21.4414 2.07472 21.7395C2.01946 21.8669 1.99414 22.0079 2.00114 22.1492C2.00813 22.2905 2.04722 22.4275 2.11472 22.5473C2.27221 22.8259 2.78468 22.993 3.81462 23.3301L18.2513 28.0714M42 3L36.8378 39.3507C36.7378 40.0583 36.6878 40.4121 36.5203 40.6043C36.4495 40.6902 36.3633 40.7586 36.2672 40.8052C36.1712 40.8517 36.0675 40.8753 35.9628 40.8745C35.7204 40.8745 35.4504 40.674 34.9104 40.2728L27.5858 34.824M42 3L18.2513 28.0714M18.2513 28.0714L18.6413 40.05C18.6413 40.9804 18.6413 41.4456 18.8138 41.6796C18.9638 41.8857 19.1888 42.0027 19.4288 42C19.7037 41.9972 20.0287 41.6991 20.6787 41.1085L27.5858 34.824M18.2513 28.0714L27.5858 34.824" stroke="currentColor" stroke-width="1.2" stroke-linecap="round" stroke-linejoin="round"></path>
  </symbol>
  <symbol fill="none" xmlns="http://www.w3.org/2000/svg" viewBox="0 0 46 46" id="ic_whatsapp">
    <path d="M42.1673 23C42.1673 33.5858 33.5864 42.1667 23.0007 42.1667C19.636 42.1713 16.3299 41.2866 13.4173 39.6022L3.83399 41.2084L5.42866 30.6667C4.37515 28.2481 3.83227 25.6381 3.83399 23C3.83399 12.4143 12.4149 3.83337 23.0007 3.83337C33.5864 3.83337 42.1673 12.4143 42.1673 23Z" stroke="currentColor" stroke-width="1.2" stroke-linecap="round" stroke-linejoin="round"></path>
    <path d="M24.8401 26.5804L28.8267 25.8022L32.5834 27.2455V30.7396C32.5834 31.903 31.5829 32.7904 30.4559 32.5412C27.5368 31.9011 22.2334 30.2911 18.5496 26.5804C15.0421 23.048 13.8441 18.1279 13.4359 15.412C13.273 14.3252 14.1336 13.4167 15.2241 13.4167H18.8543L20.263 17.1907L19.5175 21.2176" stroke="currentColor" stroke-width="1.2" stroke-linecap="round" stroke-linejoin="round"></path>
  </symbol>
</svg>