<svg width="0" height="0" class="hidden">
  <symbol fill="none" xmlns="http://www.w3.org/2000/svg" viewBox="0 0 28 28" id="ic_arr_hor">
    <path d="M18.7027 22.7857C19.0133 22.4751 19.0416 21.989 18.7874 21.6464L18.7027 21.5483L11.1552 14.0003L18.7027 6.45238C19.0133 6.14173 19.0416 5.65562 18.7874 5.31308L18.7027 5.21494C18.3921 4.90429 17.906 4.87605 17.5634 5.13022L17.4653 5.21494L9.2986 13.3816C8.98796 13.6923 8.95971 14.1784 9.21388 14.5209L9.2986 14.619L17.4653 22.7857C17.807 23.1274 18.361 23.1274 18.7027 22.7857Z" fill="currentColor"></path>
  </symbol>
  <symbol fill="none" xmlns="http://www.w3.org/2000/svg" viewBox="0 0 24 24" id="ic_arr_ver">
    <path d="M4.47065 10.5412C4.73691 10.2749 5.15358 10.2507 5.44719 10.4686L5.53131 10.5412L12.001 17.0105L18.4706 10.5412C18.7369 10.2749 19.1536 10.2507 19.4472 10.4686L19.5313 10.5412C19.7976 10.8075 19.8218 11.2241 19.6039 11.5177L19.5313 11.6019L12.5313 18.6019C12.265 18.8681 11.8484 18.8923 11.5548 18.6745L11.4706 18.6019L4.47065 11.6019C4.17775 11.309 4.17775 10.8341 4.47065 10.5412Z" fill="currentColor"></path>
  </symbol>
  <symbol fill="none" xmlns="http://www.w3.org/2000/svg" viewBox="0 0 28 28" id="ic_arrow_hor">
    <path d="M18.6667 5.83333C18.6667 6.69899 19.5218 7.99166 20.3875 9.07666C21.5005 10.4767 22.8305 11.6982 24.3553 12.6303C25.4987 13.3292 26.8847 14 28 14M28 14C26.8847 14 25.4975 14.6708 24.3553 15.3697C22.8305 16.303 21.5005 17.5245 20.3875 18.9222C19.5218 20.0083 18.6667 21.3033 18.6667 22.1667M28 14H0" stroke="currentColor"></path>
  </symbol>
  <symbol fill="none" xmlns="http://www.w3.org/2000/svg" viewBox="0 0 28 28" id="ic_close">
    <path d="M7 21L21 7M21 21L7 7" stroke="currentColor" stroke-width="1.5" stroke-miterlimit="10" stroke-linecap="round" stroke-linejoin="round"></path>
  </symbol>
  <symbol fill="none" xmlns="http://www.w3.org/2000/svg" viewBox="0 0 28 28" id="ic_check">
    <path fill-rule="evenodd" clip-rule="evenodd" d="M13.7756 1.16675H13.6417C10.9486 1.16673 8.83805 1.16672 7.19132 1.38812C5.50579 1.61473 4.17576 2.08763 3.13182 3.13157C2.08787 4.17552 1.61498 5.50555 1.38836 7.19107C1.16697 8.8378 1.16698 10.9483 1.16699 13.6415V13.7754C1.16698 16.4685 1.16697 18.579 1.38836 20.2258C1.61498 21.9113 2.08787 23.2413 3.13182 24.2853C4.17576 25.3292 5.50579 25.8021 7.19132 26.0287C8.83805 26.2501 10.9486 26.2501 13.6417 26.2501H13.7756C16.4687 26.2501 18.5793 26.2501 20.226 26.0287C21.9115 25.8021 23.2416 25.3292 24.2855 24.2853C25.3294 23.2413 25.8023 21.9113 26.029 20.2258C26.2504 18.579 26.2503 16.4685 26.2503 13.7753V13.6415C26.2503 10.9484 26.2504 8.83781 26.029 7.19107C25.8023 5.50555 25.3294 4.17552 24.2855 3.13157C23.2416 2.08763 21.9115 1.61473 20.226 1.38812C18.5793 1.16672 16.4687 1.16673 13.7756 1.16675ZM4.36926 4.36901C5.03385 3.70441 5.93303 3.32304 7.4245 3.12251C8.94114 2.91861 10.9341 2.91675 13.7087 2.91675C16.4833 2.91675 18.4762 2.91861 19.9928 3.12251C21.4843 3.32304 22.3835 3.70441 23.0481 4.36901C23.7127 5.03361 24.094 5.93278 24.2946 7.42425C24.4985 8.9409 24.5003 10.9338 24.5003 13.7084C24.5003 16.483 24.4985 18.4759 24.2946 19.9926C24.094 21.484 23.7127 22.3832 23.0481 23.0478C22.3835 23.7124 21.4843 24.0938 19.9928 24.2943C18.4762 24.4982 16.4833 24.5001 13.7087 24.5001C10.9341 24.5001 8.94114 24.4982 7.4245 24.2943C5.93303 24.0938 5.03385 23.7124 4.36926 23.0478C3.70466 22.3832 3.32328 21.484 3.12276 19.9926C2.91885 18.4759 2.91699 16.483 2.91699 13.7084C2.91699 10.9338 2.91885 8.9409 3.12276 7.42425C3.32328 5.93278 3.70466 5.03361 4.36926 4.36901Z" fill="currentColor"></path>
  </symbol>
  <symbol fill="none" xmlns="http://www.w3.org/2000/svg" viewBox="0 0 32 32" id="ic_favorite_thin">
    <path d="M22.0581 5C18.0006 5 16.0006 9 16.0006 9C16.0006 9 14.0006 5 9.94314 5C6.64564 5 4.03439 7.75875 4.00064 11.0506C3.93189 17.8837 9.42126 22.7431 15.4381 26.8269C15.604 26.9397 15.8 27.0001 16.0006 27.0001C16.2013 27.0001 16.3973 26.9397 16.5631 26.8269C22.5794 22.7431 28.0688 17.8837 28.0006 11.0506C27.9669 7.75875 25.3556 5 22.0581 5Z" stroke="currentColor" stroke-linecap="round" stroke-linejoin="round"></path>
  </symbol>
  <symbol fill="none" xmlns="http://www.w3.org/2000/svg" viewBox="0 0 28 28" id="ic_check_a">
    <path d="M20.2838 10.2021C20.6255 9.86043 20.6255 9.3064 20.2838 8.9647C19.9421 8.62299 19.3881 8.62299 19.0464 8.9647C18.7047 9.3064 11.3672 16.6438 11.3672 16.6438L9.65263 14.9292C9.31092 14.5875 8.7569 14.5875 8.41519 14.9292C8.07348 15.2709 8.07348 15.825 8.41519 16.1667L10.7485 18.5C11.0902 18.8417 11.6443 18.8417 11.986 18.5L20.2838 10.2021Z" fill="currentColor"></path>
    <path fill-rule="evenodd" clip-rule="evenodd" d="M14.0666 1.45825H13.9327C11.2396 1.45824 9.12906 1.45823 7.48233 1.67962C5.79681 1.90624 4.46678 2.37913 3.42283 3.42308C2.37889 4.46702 1.90599 5.79705 1.67938 7.48258C1.45798 9.12931 1.45799 11.2398 1.45801 13.933V14.0669C1.45799 16.76 1.45798 18.8705 1.67938 20.5173C1.90599 22.2028 2.37889 23.5328 3.42283 24.5768C4.46678 25.6207 5.79681 26.0936 7.48233 26.3202C9.12907 26.5416 11.2396 26.5416 13.9327 26.5416H14.0666C16.7597 26.5416 18.8703 26.5416 20.517 26.3202C22.2025 26.0936 23.5326 25.6207 24.5765 24.5768C25.6205 23.5328 26.0934 22.2028 26.32 20.5173C26.5414 18.8705 26.5414 16.76 26.5413 14.0669V13.933C26.5414 11.2399 26.5414 9.12931 26.32 7.48258C26.0934 5.79705 25.6205 4.46702 24.5765 3.42308C23.5326 2.37913 22.2025 1.90624 20.517 1.67962C18.8703 1.45823 16.7597 1.45824 14.0666 1.45825ZM4.66027 4.66052C5.32487 3.99592 6.22404 3.61454 7.71551 3.41402C9.23216 3.21011 11.2251 3.20825 13.9997 3.20825C16.7743 3.20825 18.7672 3.21011 20.2838 3.41402C21.7753 3.61454 22.6745 3.99592 23.3391 4.66052C24.0037 5.32511 24.3851 6.22429 24.5856 7.71576C24.7895 9.2324 24.7913 11.2253 24.7913 13.9999C24.7913 16.7745 24.7895 18.7674 24.5856 20.2841C24.3851 21.7756 24.0037 22.6747 23.3391 23.3393C22.6745 24.0039 21.7753 24.3853 20.2838 24.5858C18.7672 24.7897 16.7743 24.7916 13.9997 24.7916C11.2251 24.7916 9.23216 24.7897 7.71551 24.5858C6.22404 24.3853 5.32487 24.0039 4.66027 23.3393C3.99567 22.6747 3.6143 21.7756 3.41377 20.2841C3.20987 18.7674 3.20801 16.7745 3.20801 13.9999C3.20801 11.2253 3.20987 9.2324 3.41377 7.71576C3.6143 6.22429 3.99567 5.32511 4.66027 4.66052Z" fill="currentColor"></path>
  </symbol>
  <symbol fill="none" xmlns="http://www.w3.org/2000/svg" viewBox="0 0 25 25" id="ic_lock">
    <path d="M2.5 16.5C2.5 13.672 2.5 12.257 3.379 11.379C4.257 10.5 5.672 10.5 8.5 10.5H16.5C19.328 10.5 20.743 10.5 21.621 11.379C22.5 12.257 22.5 13.672 22.5 16.5C22.5 19.328 22.5 20.743 21.621 21.621C20.743 22.5 19.328 22.5 16.5 22.5H8.5C5.672 22.5 4.257 22.5 3.379 21.621C2.5 20.743 2.5 19.328 2.5 16.5Z" stroke="currentColor" stroke-width="1.5"></path>
    <path d="M6.5 10.5V8.5C6.5 6.9087 7.13214 5.38258 8.25736 4.25736C9.38258 3.13214 10.9087 2.5 12.5 2.5C14.0913 2.5 15.6174 3.13214 16.7426 4.25736C17.8679 5.38258 18.5 6.9087 18.5 8.5V10.5" stroke="currentColor" stroke-width="1.5" stroke-linecap="round"></path>
  </symbol>
  <symbol fill="none" xmlns="http://www.w3.org/2000/svg" viewBox="0 0 28 29" id="ic_favorite">
    <path fill-rule="evenodd" clip-rule="evenodd" d="M4.46133 14.6435C6.097 19.7325 12.5592 23.8474 14.2765 24.8659C15.9997 23.8369 22.5085 19.6765 24.0917 14.6482C25.1312 11.3979 24.1663 7.2807 20.3327 6.0452C18.4753 5.44904 16.3088 5.81187 14.8132 6.9692C14.5005 7.20954 14.0665 7.2142 13.7515 6.9762C12.1672 5.78504 10.0975 5.4362 8.211 6.0452C4.38317 7.27954 3.42183 11.3967 4.46133 14.6435ZM14.2783 26.7513C14.1336 26.7513 13.9901 26.7163 13.8594 26.6451C13.4943 26.4456 4.89243 21.7043 2.79593 15.178C2.79477 15.178 2.79477 15.1768 2.79477 15.1768C1.47877 11.0678 2.9441 5.90414 7.67493 4.3793C9.89627 3.66064 12.3171 3.9768 14.2748 5.2123C16.1718 4.01297 18.6918 3.68164 20.8688 4.3793C25.6043 5.90647 27.0743 11.069 25.7594 15.1768C23.7306 21.6285 15.0658 26.441 14.6983 26.6428C14.5676 26.7151 14.4229 26.7513 14.2783 26.7513Z" fill="currentColor"></path>
  </symbol>
  <symbol fill="none" xmlns="http://www.w3.org/2000/svg" viewBox="0 0 28 28" id="ic_filter">
    <path fill-rule="evenodd" clip-rule="evenodd" d="M11.7594 21.6917H4.4082C3.9252 21.6917 3.5332 21.2997 3.5332 20.8167C3.5332 20.3337 3.9252 19.9417 4.4082 19.9417H11.7594C12.2424 19.9417 12.6344 20.3337 12.6344 20.8167C12.6344 21.2997 12.2424 21.6917 11.7594 21.6917Z" fill="currentColor"></path>
    <path fill-rule="evenodd" clip-rule="evenodd" d="M22.3891 10.3838H15.0391C14.5561 10.3838 14.1641 9.99179 14.1641 9.50879C14.1641 9.02579 14.5561 8.63379 15.0391 8.63379H22.3891C22.8721 8.63379 23.2641 9.02579 23.2641 9.50879C23.2641 9.99179 22.8721 10.3838 22.3891 10.3838Z" fill="currentColor"></path>
    <path fill-rule="evenodd" clip-rule="evenodd" d="M7.13183 7.58325C6.09467 7.58325 5.25 8.41859 5.25 9.44642C5.25 10.4731 6.09467 11.3073 7.13183 11.3073C8.17017 11.3073 9.01367 10.4731 9.01367 9.44642C9.01367 8.41859 8.17017 7.58325 7.13183 7.58325ZM7.13183 13.0573C5.12983 13.0573 3.5 11.4379 3.5 9.44642C3.5 7.45492 5.12983 5.83325 7.13183 5.83325C9.135 5.83325 10.7637 7.45492 10.7637 9.44642C10.7637 11.4379 9.135 13.0573 7.13183 13.0573Z" fill="currentColor"></path>
    <path fill-rule="evenodd" clip-rule="evenodd" d="M20.2853 18.9092C19.247 18.9092 18.4023 19.7445 18.4023 20.7712C18.4023 21.799 19.247 22.6332 20.2853 22.6332C21.3225 22.6332 22.166 21.799 22.166 20.7712C22.166 19.7445 21.3225 18.9092 20.2853 18.9092ZM20.2853 24.3832C18.2822 24.3832 16.6523 22.7627 16.6523 20.7712C16.6523 18.7797 18.2822 17.1592 20.2853 17.1592C22.2873 17.1592 23.916 18.7797 23.916 20.7712C23.916 22.7627 22.2873 24.3832 20.2853 24.3832Z" fill="currentColor"></path>
  </symbol>
  <symbol fill="none" xmlns="http://www.w3.org/2000/svg" viewBox="0 0 24 29" id="ic_metro">
    <path fill-rule="evenodd" clip-rule="evenodd" d="M24 12.006C24 5.3795 18.6377 0 12 0C5.37681 0 0 5.3795 0 12.006C0 15.3265 1.34783 18.328 3.52174 20.4885C3.69565 20.6625 3.94203 20.7785 4.2029 20.7785C4.73913 20.7785 5.17391 20.3435 5.17391 19.807C5.17391 19.5315 5.07246 19.285 4.88406 19.0965C3.07246 17.284 1.95652 14.761 1.95652 12.006C1.95652 6.467 6.44927 1.943 11.9855 1.943C17.5217 1.943 22.0435 6.4525 22.0435 12.006C22.0435 14.79 20.9275 17.2985 19.1014 19.1255L10.6232 27.608L12 29L20.5072 20.4885C22.6667 18.328 24 15.3265 24 12.006Z" fill="currentColor"></path>
    <path fill-rule="evenodd" clip-rule="evenodd" d="M17.5654 14.326L14.5654 6.75696L12.0436 11.1795L9.50742 6.75696L6.52191 14.326H5.65234V15.457H10.1596V14.326H9.49292L10.1451 12.441L12.0436 15.544L13.9422 12.441L14.5944 14.326H13.9132V15.457H18.4494V14.326H17.5654Z" fill="currentColor"></path>
  </symbol>
  <symbol fill="none" xmlns="http://www.w3.org/2000/svg" viewBox="0 0 32 32" id="ic_notice">
    <path d="M16 28C22.6274 28 28 22.6274 28 16C28 9.37258 22.6274 4 16 4C9.37258 4 4 9.37258 4 16C4 22.6274 9.37258 28 16 28Z" stroke="currentColor" stroke-linecap="round" stroke-linejoin="round"></path>
    <path d="M16 21.3334H16.0121V21.3455H16V21.3334Z" stroke="currentColor" stroke-width="1.5" stroke-linejoin="round"></path>
    <path d="M16 16V10.6666" stroke="currentColor" stroke-linecap="round" stroke-linejoin="round"></path>
  </symbol>
  <symbol fill="none" xmlns="http://www.w3.org/2000/svg" viewBox="0 0 28 29" id="ic_search">
    <path fill-rule="evenodd" clip-rule="evenodd" d="M13.6962 4.58325C8.39598 4.58325 4.08398 8.89408 4.08398 14.1943C4.08398 19.4944 8.39598 23.8064 13.6962 23.8064C18.9952 23.8064 23.3071 19.4944 23.3071 14.1943C23.3071 8.89408 18.9952 4.58325 13.6962 4.58325ZM13.6962 25.5564C7.43115 25.5564 2.33398 20.4593 2.33398 14.1943C2.33398 7.92925 7.43115 2.83325 13.6962 2.83325C19.9612 2.83325 25.0571 7.92925 25.0571 14.1943C25.0571 20.4593 19.9612 25.5564 13.6962 25.5564Z" fill="currentColor"></path>
    <path fill-rule="evenodd" clip-rule="evenodd" d="M25.0999 27.0085C24.8771 27.0085 24.6531 26.9233 24.4816 26.753L20.3702 22.6533C20.0284 22.3115 20.0272 21.7573 20.3691 21.4155C20.7097 21.0713 21.2639 21.0737 21.6069 21.4132L25.7182 25.514C26.0601 25.8558 26.0612 26.4088 25.7194 26.7507C25.5491 26.9233 25.3239 27.0085 25.0999 27.0085Z" fill="currentColor"></path>
  </symbol>
  <symbol fill="none" xmlns="http://www.w3.org/2000/svg" viewBox="0 0 28 28" id="ic_sort">
    <path d="M19.6465 6.76245C20.0895 6.76245 20.4556 7.09163 20.5135 7.51872L20.5215 7.63745V23.5249C20.5215 24.0081 20.1297 24.3999 19.6465 24.3999C19.2035 24.3999 18.8374 24.0707 18.7795 23.6436L18.7715 23.5249V7.63745C18.7715 7.1542 19.1632 6.76245 19.6465 6.76245Z" fill="currentColor"></path>
    <path d="M23.7833 18.1288C24.1243 17.7863 24.6783 17.785 25.0208 18.1259C25.3321 18.4359 25.3615 18.9219 25.1081 19.265L25.0236 19.3634L20.2662 24.1428C19.9553 24.4552 19.4673 24.4836 19.1242 24.228L19.0259 24.1428L14.2685 19.3634C13.9276 19.0209 13.9289 18.4669 14.2714 18.1259C14.5827 17.816 15.0689 17.7889 15.4109 18.0439L15.5088 18.1288L19.6456 22.2845L23.7833 18.1288Z" fill="currentColor"></path>
    <path d="M8.06445 3.59668C8.50743 3.59668 8.87353 3.92586 8.93147 4.35295L8.93945 4.47168V20.3591C8.93945 20.8423 8.5477 21.2341 8.06445 21.2341C7.62147 21.2341 7.25538 20.9049 7.19744 20.4778L7.18945 20.3591V4.47168C7.18945 3.98843 7.5812 3.59668 8.06445 3.59668Z" fill="currentColor"></path>
    <path d="M7.4439 3.85366C7.75484 3.54128 8.2428 3.51288 8.58592 3.76847L8.68419 3.85366L13.4416 8.6331C13.7825 8.9756 13.7812 9.52962 13.4387 9.87054C13.1274 10.1805 12.6412 10.2076 12.2993 9.95263L12.2013 9.86768L8.06379 5.71073L3.92679 9.86768C3.61686 10.179 3.13082 10.2084 2.78769 9.95503L2.68935 9.87054C2.37799 9.56061 2.34863 9.07457 2.602 8.73144L2.68649 8.6331L7.4439 3.85366Z" fill="currentColor"></path>
  </symbol>
  <symbol fill="none" xmlns="http://www.w3.org/2000/svg" viewBox="0 0 46 46" id="ic_tg">
    <path d="M42 3L3.68213 20.7533C2.69469 21.2102 2.20221 21.4414 2.07472 21.7395C2.01946 21.8669 1.99414 22.0079 2.00114 22.1492C2.00813 22.2905 2.04722 22.4275 2.11472 22.5473C2.27221 22.8259 2.78468 22.993 3.81462 23.3301L18.2513 28.0714M42 3L36.8378 39.3507C36.7378 40.0583 36.6878 40.4121 36.5203 40.6043C36.4495 40.6902 36.3633 40.7586 36.2672 40.8052C36.1712 40.8517 36.0675 40.8753 35.9628 40.8745C35.7204 40.8745 35.4504 40.674 34.9104 40.2728L27.5858 34.824M42 3L18.2513 28.0714M18.2513 28.0714L18.6413 40.05C18.6413 40.9804 18.6413 41.4456 18.8138 41.6796C18.9638 41.8857 19.1888 42.0027 19.4288 42C19.7037 41.9972 20.0287 41.6991 20.6787 41.1085L27.5858 34.824M18.2513 28.0714L27.5858 34.824" stroke="currentColor" stroke-width="1.2" stroke-linecap="round" stroke-linejoin="round"></path>
  </symbol>
  <symbol fill="none" xmlns="http://www.w3.org/2000/svg" viewBox="0 0 24 24" id="ic_tg2">
    <path d="M20.7097 3.6545C20.7097 3.6545 22.6523 2.897 22.4904 4.73664C22.4365 5.49415 21.9508 8.1454 21.573 11.0131L20.278 19.5079C20.278 19.5079 20.17 20.7524 19.1987 20.9688C18.2274 21.1852 16.7704 20.2113 16.5005 19.9949C16.2847 19.8326 12.4534 17.3977 11.1043 16.2074C10.7265 15.8827 10.2948 15.2334 11.1582 14.476L16.8244 9.06525C17.4719 8.41595 18.1194 6.90095 15.4213 8.7406L7.86655 13.8808C7.86655 13.8808 7.00315 14.4219 5.3843 13.9349L1.87671 12.8527C1.87671 12.8527 0.581605 12.0412 2.79408 11.2295C8.19035 8.68645 14.8278 6.0893 20.7097 3.6545Z" fill="currentColor"></path>
  </symbol>
  <symbol fill="none" xmlns="http://www.w3.org/2000/svg" viewBox="0 0 24 25" id="ic_time">
    <path d="M12 21.5C16.9706 21.5 21 17.4706 21 12.5C21 7.52944 16.9706 3.5 12 3.5C7.02944 3.5 3 7.52944 3 12.5C3 17.4706 7.02944 21.5 12 21.5Z" stroke="currentColor" stroke-linecap="round" stroke-linejoin="round"></path>
    <path d="M11 8.5V13.5H16" stroke="currentColor" stroke-linecap="round" stroke-linejoin="round"></path>
  </symbol>
  <symbol fill="none" xmlns="http://www.w3.org/2000/svg" viewBox="0 0 28 29" id="ic_user">
    <path fill-rule="evenodd" clip-rule="evenodd" d="M13.8699 15.2218H13.9072C17.3232 15.2218 20.101 12.444 20.101 9.02801C20.101 5.61201 17.3232 2.83301 13.9072 2.83301C10.49 2.83301 7.71104 5.61201 7.71104 9.02451C7.69937 12.4312 10.4609 15.2113 13.8699 15.2218ZM9.37704 9.02801C9.37704 6.53017 11.4094 4.49901 13.9072 4.49901C16.4039 4.49901 18.435 6.53017 18.435 9.02801C18.435 11.5247 16.4039 13.557 13.9072 13.557H13.8734C11.386 13.5477 9.36887 11.5177 9.37704 9.02801Z" fill="currentColor"></path>
    <path fill-rule="evenodd" clip-rule="evenodd" d="M4.66602 21.7019C4.66602 26.0151 11.6217 26.0151 13.9072 26.0151C17.8727 26.0151 23.146 25.5706 23.146 21.7252C23.146 17.4121 16.1927 17.4121 13.9072 17.4121C9.94052 17.4121 4.66602 17.8566 4.66602 21.7019ZM6.41602 21.7019C6.41602 20.0161 8.93602 19.1621 13.9072 19.1621C18.8772 19.1621 21.396 20.0242 21.396 21.7252C21.396 23.4111 18.8772 24.2651 13.9072 24.2651C8.93602 24.2651 6.41602 23.4029 6.41602 21.7019Z" fill="currentColor"></path>
  </symbol>
  <symbol fill="none" xmlns="http://www.w3.org/2000/svg" viewBox="0 0 46 46" id="ic_whatsapp">
    <path d="M42.1673 23C42.1673 33.5858 33.5864 42.1667 23.0007 42.1667C19.636 42.1713 16.3299 41.2866 13.4173 39.6022L3.83399 41.2084L5.42866 30.6667C4.37515 28.2481 3.83227 25.6381 3.83399 23C3.83399 12.4143 12.4149 3.83337 23.0007 3.83337C33.5864 3.83337 42.1673 12.4143 42.1673 23Z" stroke="currentColor" stroke-width="1.2" stroke-linecap="round" stroke-linejoin="round"></path>
    <path d="M24.8401 26.5804L28.8267 25.8022L32.5834 27.2455V30.7396C32.5834 31.903 31.5829 32.7904 30.4559 32.5412C27.5368 31.9011 22.2334 30.2911 18.5496 26.5804C15.0421 23.048 13.8441 18.1279 13.4359 15.412C13.273 14.3252 14.1336 13.4167 15.2241 13.4167H18.8543L20.263 17.1907L19.5175 21.2176" stroke="currentColor" stroke-width="1.2" stroke-linecap="round" stroke-linejoin="round"></path>
  </symbol>
</svg>